<?xml version="1.0" encoding="UTF-8"?>
<svg id="Layer_1" data-name="Layer 1" xmlns="http://www.w3.org/2000/svg" xmlns:xlink="http://www.w3.org/1999/xlink" viewBox="0 0 20.33 11.93">
  <defs>
    <style>
      .cls-1 {
        fill: url(#linear-gradient);
      }
    </style>
    <linearGradient id="linear-gradient" x1=".05" y1="5.89" x2="20.33" y2="5.89" gradientUnits="userSpaceOnUse">
      <stop offset="0" stop-color="#06d4ef"/>
      <stop offset="1" stop-color="#0060b7"/>
    </linearGradient>
  </defs>
  <path class="cls-1" d="M19.6,5.15H3.19S9.92,1.37,9.92,1.37c.15-.08,.25-.17,.32-.27,.08-.1,.12-.23,.12-.39,0-.2-.07-.37-.22-.51S9.81-.01,9.6,0c-.08,0-.17,.02-.27,.07-.1,.03-.19,.07-.29,.12L.63,4.98c-.18,.1-.33,.22-.44,.37-.1,.13-.15,.29-.15,.49,0,.18,.03,.34,.1,.49,.08,.13,.22,.25,.41,.37l8.56,4.88c.1,.05,.2,.1,.32,.15,.11,.05,.22,.07,.32,.07,.16,0,.31-.07,.44-.22,.15-.15,.22-.31,.22-.49,0-.16-.04-.29-.12-.39-.08-.11-.24-.23-.46-.34L3.25,6.62H19.6c.41,0,.74-.33,.74-.74s-.33-.74-.74-.74Z"/>
</svg>