<?xml version="1.0" encoding="UTF-8"?>
<svg id="Layer_1" data-name="Layer 1" xmlns="http://www.w3.org/2000/svg" viewBox="0 0 10.28 19">
  <defs>
    <style>
      .cls-1 {
        fill: #f5f4f1;
      }
    </style>
  </defs>
  <path class="cls-1" d="M10.16,14.78c-.08-.11-.23-.22-.46-.34L1.92,10.05l7.88-4.43c.14-.08,.25-.17,.31-.26,.08-.1,.12-.22,.12-.38,0-.19-.07-.36-.22-.5s-.32-.21-.53-.19c-.08,0-.17,.02-.26,.07-.1,.03-.19,.07-.29,.12L.65,9.17c-.18,.1-.32,.22-.43,.36-.1,.13-.14,.29-.14,.48,0,.18,.03,.34,.1,.48,.08,.13,.22,.25,.41,.36l8.42,4.8c.1,.05,.2,.1,.31,.14,.11,.05,.22,.07,.31,.07,.16,0,.3-.07,.43-.22,.14-.14,.22-.3,.22-.48,0-.16-.04-.29-.12-.38Z"/>
</svg>