<?xml version="1.0" encoding="UTF-8"?>
<svg id="Layer_1" data-name="Layer 1" xmlns="http://www.w3.org/2000/svg" viewBox="0 0 18.75 21">
  <defs>
    <style>
      .cls-1 {
        fill: #f5f4f1;
      }
    </style>
  </defs>
  <path class="cls-1" d="M17.99,9.19L2.24,.2C1.97,.05,1.67-.02,1.36,.01c-.3,.03-.59,.15-.82,.34-.23,.2-.4,.46-.48,.75-.08,.29-.07,.6,.03,.89L2.99,10.48s0,0,0,0c0,0,0,0,0,0L.09,19c-.08,.23-.1,.47-.07,.71,.03,.24,.12,.46,.26,.66,.14,.2,.32,.36,.53,.47,.21,.11,.45,.17,.69,.17,.26,0,.52-.07,.74-.2l15.74-9.01c.23-.13,.43-.32,.56-.55,.13-.23,.21-.49,.21-.76,0-.27-.07-.53-.2-.76-.13-.23-.33-.42-.56-.55h0ZM1.5,19.5h0s2.83-8.25,2.83-8.25h5.42c.2,0,.39-.08,.53-.22s.22-.33,.22-.53-.08-.39-.22-.53c-.14-.14-.33-.22-.53-.22H4.33L1.5,1.51h0s15.75,8.97,15.75,8.97L1.5,19.5Z"/>
</svg>