<svg width="24" height="23" viewBox="0 0 24 23" fill="none" xmlns="http://www.w3.org/2000/svg">
<g clip-path="url(#clip0_8_730)">
<path d="M23.7205 21.8909C20.5945 18.6594 17.461 15.4345 14.3291 12.2087C14.1224 11.9957 13.9183 11.7807 13.7009 11.5545C13.7766 11.4868 13.8357 11.4348 13.8943 11.3828C16.1796 9.34805 18.4643 7.31327 20.7495 5.27901C21.6201 4.50412 22.4923 3.73127 23.3614 2.95537C23.8627 2.50755 24.1211 1.96804 23.9442 1.30778C23.77 0.656183 23.3241 0.226201 22.6442 0.0570605C21.967 -0.11157 21.4022 0.121252 20.9408 0.595558C18.9246 2.66905 16.9122 4.74662 14.8987 6.82216C13.9412 7.80847 12.9832 8.79427 12.0013 9.80503C11.9117 9.71486 11.8398 9.64354 11.7695 9.57068C9.49651 7.2287 7.22406 4.88622 4.95162 2.54424C4.29679 1.86971 3.65102 1.18602 2.98181 0.525253C2.42875 -0.0208866 1.68708 -0.141628 1.02692 0.165575C0.331071 0.489591 -0.0685387 1.1636 0.0177769 1.89111C0.0785175 2.40159 0.41046 2.75617 0.785027 3.08885C3.89026 5.84807 6.99176 8.61086 10.097 11.3696C10.1652 11.4302 10.2622 11.4618 10.3458 11.5071C10.2462 11.6121 10.2211 11.6421 10.194 11.6702C7.11697 14.8395 4.03998 18.0088 0.963519 21.1782C0.693383 21.4558 0.417919 21.7289 0.159505 22.0157C-0.0690715 22.2694 -0.0461606 22.6118 0.190941 22.8329C0.418985 23.0459 0.762649 23.0499 1.02479 22.8385C1.13615 22.7488 1.24165 22.6526 1.34768 22.5578C4.6687 19.5999 7.98918 16.6425 11.3097 13.6851C11.5388 13.4813 11.7695 13.2795 12.0002 13.0763C12.0487 13.1165 12.0801 13.141 12.1094 13.1669C15.4065 16.1035 18.7035 19.04 22.0005 21.9765C22.332 22.2715 22.6612 22.569 22.9996 22.8568C23.194 23.0224 23.4269 23.0392 23.656 22.9333C23.8872 22.8263 24.0316 22.6317 23.9826 22.3902C23.9469 22.2129 23.8483 22.0234 23.7205 21.8909Z" fill="#E16565"/>
</g>
<defs>
<clipPath id="clip0_8_730">
<rect width="24" height="23" fill="white"/>
</clipPath>
</defs>
</svg>
