<svg width="368" height="24" viewBox="0 0 368 24" fill="none" xmlns="http://www.w3.org/2000/svg">
<path d="M268.113 15.7199L367.596 12.997L367.989 15.1C347.013 17.1163 326.055 19.2358 305.043 21.1099C293.236 22.1339 281.335 22.9374 269.437 23.5996C258.279 24.2268 256.269 22.9875 255.211 15.7047C254.24 9.02768 250.247 7.1535 239.643 8.93642C216.346 12.9701 193.182 17.2893 169.867 21.2455C163.74 22.1483 157.493 22.7067 151.196 22.9144C142.257 23.3979 134.591 21.4682 129.65 16.3995C125.178 11.8037 118.711 9.81065 110.985 10.5394C88.7299 12.6173 66.5679 15.0058 44.3869 17.3423C34.9176 18.3537 25.5772 19.8562 16.0546 20.5709C11.1538 20.9123 6.08297 19.9137 0.779443 19.5011C11.631 18.3018 21.954 17.5148 31.9739 15.9888C56.7031 12.2181 81.1493 7.69589 105.99 4.30024C118.871 2.52909 130.69 4.589 139.666 12.3423C142.155 14.4916 150.14 15.5417 154.748 14.8855C175.706 11.8794 196.381 8.0962 217.15 4.57204C224.488 3.32083 231.694 1.66841 239.205 0.716532C254.868 -1.30153 263.039 2.21962 267.11 12.3057C267.368 13.2622 267.665 14.2967 268.113 15.7199Z" fill="url(#paint0_linear_8_435)"/>
<defs>
<linearGradient id="paint0_linear_8_435" x1="-2.86843" y1="20.0335" x2="1.6002" y2="-29.9432" gradientUnits="userSpaceOnUse">
<stop stop-color="#06D4EF"/>
<stop offset="1" stop-color="#0060B7"/>
</linearGradient>
</defs>
</svg>
