<svg width="441" height="60" viewBox="0 0 441 60" fill="none" xmlns="http://www.w3.org/2000/svg">
<path d="M93.9948 5.38318C93.9948 5.38318 83.9265 11.7966 63.8118 24.6006C62.1631 25.6733 61.5255 26.0842 59.7889 26.107C59.7889 26.107 42.9717 25.1028 9.33727 23.0715C4.56691 23.6877 2.65437 31.7444 9.35926 35.1223C9.35926 35.1223 11.3378 35.2592 15.2288 35.5103C15.1848 37.2677 15.1189 39.0023 14.987 40.7369C12.9425 40.6 10.8541 40.463 8.67779 40.3032C5.16046 39.8468 2.28065 37.4275 0.478022 32.9084C0.346122 32.3607 0.236203 31.7901 0.14827 31.2195C-0.225446 28.6404 0.0823266 25.9929 1.35736 23.7105C2.63238 21.451 4.63287 19.7164 6.87516 18.5524C6.87516 18.5524 18.7461 12.4357 42.4441 0.179403C42.9057 -0.0488324 43.4993 -0.0260158 44.4885 0.0652785C44.4885 0.0652785 61.2398 1.138 94.7203 3.28341C95.4237 3.89965 95.1819 4.60717 93.9948 5.38318ZM18.7461 40.9423C45.1041 42.7226 58.338 43.5899 58.338 43.5899C60.0746 43.567 60.8441 43.0877 62.0531 42.2889C82.4316 29.6218 92.6319 23.2997 92.6319 23.2997C93.9728 22.5237 94.1707 21.7249 93.2694 20.9032C90.7633 20.7206 89.1145 20.675 88.2572 20.6293C70.3848 31.6988 61.3936 37.1764 61.3936 37.1764C60.0527 37.9296 59.9427 38.2035 58.1181 38.2263C39.85 37.0395 26.7041 36.195 18.7021 35.6701C18.7021 36.9482 18.7021 38.2491 18.7021 39.5272C18.7021 40.0065 18.7241 40.463 18.7461 40.9195V40.9423ZM83.8386 33.5018C82.6295 33.5018 81.6402 34.5289 81.6402 35.7842V41.6727L60.2725 55.3212L31.8481 52.4226V45.8722C31.8481 44.6169 30.8589 43.5899 29.6498 43.5899C28.4407 43.5899 27.4515 44.6169 27.4515 45.8722V56.5536L61.3057 60L86.0369 44.2289V35.7842C86.0369 34.5289 85.0476 33.5018 83.8386 33.5018ZM18.7021 26.3124H15.2288C15.2288 28.0698 15.2288 29.8044 15.2288 31.5618C15.2288 32.8628 15.2288 34.1637 15.2068 35.4647C16.24 35.5331 17.3831 35.6016 18.6802 35.6929C18.6802 32.5661 18.6802 29.4392 18.6802 26.3124H18.7021ZM12.9425 52.879C11.3158 58.7904 11.5796 58.8588 17.4491 58.8588C22.0876 58.8588 22.1975 58.5849 21.2522 53.9061C20.3949 49.5925 18.9879 45.3929 18.7461 40.9423C17.5151 40.851 16.262 40.7826 14.965 40.6913C14.6572 44.7767 14.0637 48.8393 12.9425 52.879Z" fill="url(#paint0_linear_8_748)"/>
<path d="M140.015 44.8934H123.165V10.9006C123.165 9.77123 122.77 8.81899 121.98 8.06605C121.19 7.31312 120.269 6.93665 119.238 6.93665C118.031 6.93665 117.044 7.31312 116.276 8.06605C115.508 8.81899 115.113 9.77123 115.113 10.9006V48.5474C115.113 49.6768 115.486 50.629 116.232 51.3819C116.978 52.1349 117.921 52.5113 119.04 52.5113H140.015C141.134 52.5113 142.078 52.157 142.824 51.4262C143.57 50.7176 143.943 49.8096 143.943 48.7245C143.943 47.6394 143.57 46.665 142.824 45.9564C142.078 45.2477 141.134 44.8713 140.015 44.8713V44.8934Z" fill="white"/>
<path d="M177.117 22.1288C175.603 20.5565 173.869 19.2943 171.917 18.3863C169.964 17.4784 167.88 17.0133 165.686 17.0133C162.855 17.0133 160.157 17.7441 157.612 19.2278C155.066 20.7115 153.026 22.8153 151.446 25.5835C149.867 28.3516 149.099 31.6734 149.099 35.5709C149.099 38.9149 149.823 41.9044 151.271 44.5619C152.719 47.2193 154.781 49.3009 157.458 50.8511C160.157 52.4012 163.316 53.1542 166.98 53.1542C169.13 53.1542 171.215 52.7999 173.233 52.0691C175.252 51.3604 176.831 50.5189 177.95 49.5667C179.157 48.6144 179.75 47.5515 179.75 46.3778C179.75 45.5141 179.442 44.739 178.806 44.0968C178.192 43.4546 177.402 43.1224 176.458 43.1224C175.778 43.1224 175.032 43.3217 174.264 43.6982C173.782 43.9639 173.255 44.274 172.685 44.6504C172.114 45.0269 171.346 45.3369 170.403 45.6027C169.459 45.8684 168.187 46.0013 166.585 46.0013C164.874 46.0013 163.25 45.5805 161.714 44.739C160.179 43.8975 158.95 42.6574 157.963 41.0186C157.392 40.0664 157.019 38.9813 156.778 37.7854H178.06C179.091 37.7854 179.991 37.4533 180.781 36.8111C181.571 36.1689 181.966 35.3052 182.009 34.2644C182.009 31.917 181.571 29.7025 180.693 27.6208C179.815 25.5392 178.609 23.7011 177.117 22.1067V22.1288ZM159.169 26.4693C159.981 25.6499 160.946 25.052 162.065 24.7198C163.184 24.3655 164.391 24.1883 165.686 24.1883C166.98 24.1883 168.275 24.4762 169.459 25.0741C170.644 25.6499 171.632 26.4471 172.421 27.4437C173.211 28.4402 173.65 29.5696 173.738 30.8319V31.2969H156.844C156.953 30.7654 157.063 30.2561 157.217 29.7911C157.699 28.3959 158.336 27.2887 159.147 26.4693H159.169Z" fill="white"/>
<path d="M213.252 43.521C212.309 43.521 211.607 43.7203 211.124 44.0968C210.641 44.4733 210.115 44.8497 209.5 45.2041C208.974 45.4698 208.338 45.6691 207.57 45.7798C206.802 45.8906 205.88 45.9792 204.805 45.9792C202.874 45.9792 201.163 45.5141 199.671 44.5397C198.179 43.5875 197.016 42.3031 196.183 40.6643C195.349 39.0256 194.932 37.1875 194.932 35.1059C194.932 33.0242 195.349 31.0976 196.161 29.481C196.972 27.8423 198.157 26.5579 199.671 25.6056C201.207 24.6534 203.05 24.1662 205.244 24.1662C205.683 24.1662 206.319 24.2326 207.219 24.3876C208.096 24.5427 208.755 24.742 209.193 25.0077C209.676 25.2734 210.071 25.5613 210.422 25.8492C210.773 26.1593 211.168 26.4028 211.607 26.6022C212.068 26.8015 212.638 26.89 213.318 26.89C214.305 26.89 215.051 26.5136 215.578 25.7606C216.105 25.0077 216.346 24.1883 216.346 23.3247C216.346 22.0181 215.841 20.9109 214.832 19.9808C213.823 19.0507 212.397 18.3199 210.576 17.7884C208.754 17.2569 206.604 17.0133 204.147 17.0133C200.834 17.0133 197.894 17.7884 195.349 19.3164C192.782 20.8666 190.785 22.9925 189.337 25.6942C187.889 28.4181 187.165 31.5405 187.165 35.1059C187.165 38.6713 187.845 41.5501 189.206 44.2961C190.566 47.0421 192.475 49.1902 194.976 50.7846C197.477 52.3791 200.417 53.1542 203.818 53.1542C206.1 53.1542 208.206 52.8884 210.181 52.3348C212.133 51.7812 213.713 51.0725 214.92 50.1867C216.127 49.3009 216.719 48.3044 216.719 47.2193C216.719 46.1342 216.412 45.2927 215.819 44.584C215.227 43.8754 214.349 43.4989 213.23 43.4989L213.252 43.521Z" fill="white"/>
<path d="M238.046 25.4726C239.077 25.4726 239.932 25.1404 240.635 24.4539C241.337 23.7674 241.666 22.948 241.666 21.9515C241.666 20.955 241.315 20.047 240.635 19.3384C239.954 18.6519 239.077 18.2976 238.046 18.2976H233.46V14.1343C233.46 13.0049 233.109 12.0526 232.407 11.2997C231.705 10.5468 230.783 10.1703 229.664 10.1703C228.545 10.1703 227.602 10.5468 226.856 11.2997C226.11 12.0526 225.737 13.0049 225.737 14.1343V18.2976H222.775C221.744 18.2976 220.888 18.6297 220.186 19.3162C219.506 19.9806 219.155 20.8221 219.155 21.8186C219.155 22.8152 219.506 23.7231 220.186 24.4318C220.866 25.1183 221.744 25.4726 222.775 25.4726H225.737V43.4544C225.737 45.5804 226.066 47.2634 226.702 48.4592C227.339 49.6551 228.15 50.5852 229.116 51.1609C230.081 51.7367 231.112 52.1132 232.209 52.2682C233.306 52.4232 234.316 52.4897 235.215 52.4897C236.729 52.4897 238.133 52.091 239.45 51.316C240.766 50.5409 241.424 49.5443 241.424 48.3264C241.424 47.3298 241.183 46.5548 240.678 45.979C240.174 45.4254 239.625 45.1375 239.033 45.1375C238.462 45.1375 237.98 45.226 237.541 45.4254C237.102 45.6247 236.641 45.7132 236.115 45.7132C235.632 45.7132 235.193 45.6247 234.798 45.4475C234.382 45.2703 234.074 44.9825 233.833 44.606C233.592 44.2074 233.482 43.7202 233.482 43.1001V25.4504H238.067L238.046 25.4726Z" fill="white"/>
<path d="M274.357 17.656C273.238 17.656 272.316 18.0325 271.592 18.7854C270.868 19.5383 270.495 20.4906 270.495 21.62V38.1624C270.495 40.8198 269.925 42.7686 268.762 44.053C267.599 45.3374 265.844 45.9796 263.474 45.9796C261.105 45.9796 259.415 45.3374 258.252 44.053C257.089 42.7686 256.519 40.7977 256.519 38.1624V21.62C256.519 20.4906 256.146 19.5383 255.422 18.7854C254.698 18.0325 253.776 17.656 252.657 17.656C251.538 17.656 250.617 18.0325 249.893 18.7854C249.169 19.5383 248.796 20.4906 248.796 21.62V38.1624C248.796 42.7686 250.047 46.4225 252.57 49.1021C255.093 51.7817 258.735 53.1325 263.518 53.1325C268.301 53.1325 271.943 51.7817 274.488 49.1021C277.033 46.4004 278.306 42.7686 278.306 38.1624V21.62C278.306 20.4906 277.933 19.5383 277.209 18.7854C276.485 18.0325 275.563 17.656 274.444 17.656H274.357Z" fill="white"/>
<path d="M307.816 18.1206C306.939 17.3898 305.842 17.0133 304.547 17.0133C303.472 17.0133 302.397 17.1462 301.322 17.4119C300.247 17.6777 299.237 18.0763 298.294 18.6078C297.351 19.1614 296.495 19.8257 295.749 20.623C295.2 21.1987 294.762 21.8631 294.367 22.5717V21.6195C294.367 20.4901 293.994 19.5378 293.27 18.7849C292.546 18.032 291.602 17.6555 290.505 17.6555C289.408 17.6555 288.465 18.032 287.741 18.7849C287.017 19.5378 286.644 20.4901 286.644 21.6195V48.5258C286.644 49.6552 287.017 50.6075 287.741 51.3604C288.465 52.1134 289.386 52.4898 290.505 52.4898C291.624 52.4898 292.546 52.1134 293.27 51.3604C293.994 50.6075 294.367 49.6552 294.367 48.5258V33.0907C294.367 31.5184 294.564 30.1675 294.981 29.016C295.398 27.8644 295.924 26.89 296.605 26.115C297.263 25.3399 298.009 24.7641 298.799 24.3876C299.588 24.0112 300.378 23.834 301.146 23.834C302.002 23.834 302.77 23.989 303.428 24.2991C304.086 24.6091 304.832 24.7641 305.644 24.7641C306.5 24.7641 307.312 24.4541 308.036 23.8119C308.76 23.1918 309.133 22.151 309.133 20.7115C309.133 19.715 308.694 18.8514 307.816 18.0984V18.1206Z" fill="white"/>
<path d="M343.272 36.8105C344.04 36.1683 344.457 35.3046 344.501 34.2638C344.501 31.9164 344.062 29.7019 343.185 27.6203C342.307 25.5386 341.1 23.7006 339.608 22.1061C338.094 20.5338 336.361 19.2715 334.408 18.3636C332.456 17.4556 330.371 16.9906 328.177 16.9906C325.347 16.9906 322.648 17.7214 320.103 19.2051C317.558 20.6888 315.518 22.7926 313.938 25.5608C312.358 28.3289 311.59 31.6507 311.59 35.5482C311.59 38.8921 312.314 41.8817 313.762 44.5392C315.21 47.1966 317.273 49.2782 319.95 50.8284C322.626 52.3785 325.808 53.1315 329.472 53.1315C331.622 53.1315 333.706 52.7771 335.725 52.0464C337.743 51.3377 339.323 50.4962 340.442 49.544C341.649 48.5917 342.241 47.5287 342.241 46.3551C342.241 45.4914 341.934 44.7163 341.298 44.0741C340.661 43.4319 339.894 43.0997 338.95 43.0997C338.27 43.0997 337.524 43.299 336.756 43.6755C336.273 43.9412 335.747 44.2513 335.176 44.6277C334.606 45.0042 333.838 45.3142 332.895 45.58C331.951 45.8457 330.679 45.9786 329.077 45.9786C327.366 45.9786 325.742 45.5578 324.206 44.7163C322.67 43.8748 321.442 42.6347 320.454 40.9959C319.884 40.0437 319.511 38.9586 319.27 37.7627H340.552C341.583 37.7627 342.483 37.4306 343.272 36.7884V36.8105ZM321.661 26.4466C322.473 25.6272 323.438 25.0293 324.557 24.6971C325.676 24.3428 326.883 24.1656 328.177 24.1656C329.472 24.1656 330.766 24.4535 331.951 25.0514C333.136 25.6272 334.123 26.4244 334.913 27.421C335.703 28.4175 336.142 29.5469 336.23 30.8092V31.2742H319.335C319.445 30.7427 319.555 30.2334 319.708 29.7683C320.191 28.3732 320.827 27.2659 321.639 26.4466H321.661Z" fill="white"/>
<path d="M398.781 7.95467C399.593 8.68546 400.01 9.6377 400.01 10.8114V48.5246C400.01 49.654 399.637 50.6062 398.913 51.3591C398.189 52.1121 397.224 52.4885 396.017 52.4885C394.81 52.4885 393.823 52.1121 393.077 51.3591C392.331 50.6062 391.958 49.654 391.958 48.5246V22.3047L381.317 38.6921C380.922 39.1793 380.439 39.5779 379.869 39.9323C379.298 40.2866 378.706 40.4416 378.091 40.3973C377.543 40.4416 376.972 40.2866 376.38 39.9323C375.81 39.5779 375.305 39.1793 374.932 38.6921L364.291 21.7068V48.5246C364.291 49.654 363.94 50.6062 363.26 51.3591C362.58 52.1121 361.658 52.4885 360.539 52.4885C359.42 52.4885 358.586 52.1121 357.884 51.3591C357.204 50.6062 356.853 49.654 356.853 48.5246V10.8114C356.853 9.72628 357.248 8.79619 358.038 8.02111C358.828 7.24603 359.793 6.84741 360.912 6.84741C361.504 6.84741 362.141 7.00243 362.821 7.33461C363.479 7.66678 363.984 8.08754 364.335 8.59688L378.377 30.432L392.857 8.59688C393.669 7.42319 394.722 6.84741 396.017 6.84741C397.048 6.84741 397.97 7.22388 398.781 7.95467ZM436.409 37.7842H415.127C415.368 38.98 415.741 40.0651 416.312 41.0174C417.277 42.6561 418.528 43.8741 420.064 44.7377C421.599 45.5793 423.223 46 424.934 46C426.536 46 427.787 45.8671 428.752 45.6014C429.696 45.3357 430.463 45.0256 431.034 44.6492C431.604 44.2727 432.131 43.9627 432.614 43.6969C433.382 43.2983 434.127 43.1212 434.808 43.1212C435.751 43.1212 436.541 43.4533 437.155 44.0955C437.77 44.7377 438.099 45.5128 438.099 46.3765C438.099 47.5502 437.506 48.6131 436.3 49.5654C435.181 50.5176 433.601 51.3591 431.582 52.0678C429.564 52.7764 427.48 53.1529 425.329 53.1529C421.665 53.1529 418.506 52.3778 415.807 50.8498C413.109 49.2996 411.046 47.218 409.62 44.5606C408.172 41.9032 407.448 38.9136 407.448 35.5697C407.448 31.6721 408.238 28.3282 409.795 25.5822C411.353 22.8362 413.416 20.7103 415.961 19.2265C418.506 17.7428 421.183 17.012 424.035 17.012C426.229 17.012 428.313 17.4771 430.266 18.385C432.219 19.293 433.952 20.5553 435.466 22.1276C436.98 23.722 438.165 25.5379 439.042 27.6417C439.92 29.7233 440.359 31.9379 440.359 34.2852C440.315 35.3261 439.898 36.1676 439.13 36.8319C438.362 37.4963 437.462 37.8063 436.409 37.8063V37.7842ZM415.566 29.7676C415.412 30.2327 415.281 30.742 415.193 31.2735H432.087V30.8085C431.999 29.5462 431.56 28.4168 430.771 27.4202C429.981 26.4237 428.993 25.6265 427.809 25.0507C426.624 24.4749 425.373 24.1649 424.035 24.1649C422.696 24.1649 421.534 24.3421 420.415 24.6964C419.296 25.0507 418.33 25.6265 417.519 26.4459C416.707 27.2652 416.049 28.3725 415.588 29.7676H415.566Z" fill="url(#paint1_linear_8_748)"/>
<defs>
<linearGradient id="paint0_linear_8_748" x1="-0.942059" y1="59.4282" x2="51.2752" y2="-26.6065" gradientUnits="userSpaceOnUse">
<stop stop-color="#06D4EF"/>
<stop offset="1" stop-color="#0060B7"/>
</linearGradient>
<linearGradient id="paint1_linear_8_748" x1="356.026" y1="52.7116" x2="393.759" y2="-18.0141" gradientUnits="userSpaceOnUse">
<stop stop-color="#06D4EF"/>
<stop offset="1" stop-color="#0060B7"/>
</linearGradient>
</defs>
</svg>
