<svg width="84" height="16" viewBox="0 0 194 16" fill="none" xmlns="http://www.w3.org/2000/svg">
<path d="M193.145 13.2074C167.739 6.75706 141.597 6.33209 115.483 6.0154C82.0685 5.60619 49.2552 9.94207 16.2938 13.1029C12.8757 13.428 9.59406 14.6868 6.17558 15.0208C4.4553 15.1873 2.53966 14.2481 0.702141 13.8029C1.36967 12.4223 1.51938 10.493 2.7671 9.75295C13.2906 3.57068 24.8307 0.206688 38.412 3.31817L28.5569 4.77456L28.6176 5.66926C30.4006 5.58574 32.1947 5.5027 33.9785 5.40137C70.2165 3.39907 106.235 -1.6993 142.807 1.09437C155.485 2.08829 168.125 4.72199 180.684 7.1916C185.321 8.08778 189.536 10.5447 193.947 12.2965L193.145 13.2074Z" fill="url(#paint0_linear_8_438)"/>
<defs>
<linearGradient id="paint0_linear_8_438" x1="-1.24358" y1="14.5514" x2="4.30439" y2="-24.1012" gradientUnits="userSpaceOnUse">
<stop stop-color="#06D4EF"/>
<stop offset="1" stop-color="#0060B7"/>
</linearGradient>
</defs>
</svg>
