<svg width="66" height="59" viewBox="0 0 66 59" fill="none" xmlns="http://www.w3.org/2000/svg">
<path d="M27.3214 0.0292314C27.3214 0.0289245 27.3217 0.0286757 27.322 0.0286757C33.9915 0.0286798 40.6621 0.103151 47.3294 0.000885294C51.4046 -0.0613652 54.685 3.16677 54.655 7.32199C54.5894 16.3072 54.6349 25.2924 54.6338 34.2787C54.6338 38.515 51.6202 41.5275 47.3794 41.5286C40.3396 41.5308 33.2986 41.5364 26.2587 41.5175C25.5929 41.5153 25.0537 41.6842 24.5146 42.0711C19.9247 45.3648 15.3204 48.6385 10.7217 51.9178C9.58894 52.7259 8.2261 52.4469 7.64584 51.2942C7.46242 50.9307 7.45353 50.546 7.45353 50.1559C7.45353 47.5247 7.44019 44.8946 7.46353 42.2634C7.46798 41.7187 7.3168 41.5297 6.74765 41.5119C2.94259 41.3941 0.0145945 38.3794 0.0090364 34.5721C-0.00207976 25.3646 -0.00430299 16.1571 0.010148 6.94848C0.0157061 3.02559 3.04264 0.0342338 6.97887 0.0308989C13.7595 0.0242294 20.5402 0.0286754 27.3209 0.0297872C27.3212 0.0297873 27.3214 0.0295384 27.3214 0.0292314V0.0292314ZM11.4717 46.5509C11.4719 46.5509 11.4721 46.5508 11.4723 46.5507C12.5905 45.7393 13.6464 44.9601 14.7157 44.2009C17.5092 42.2189 20.3183 40.2603 23.0962 38.2571C23.7131 37.8114 24.3279 37.5835 25.0904 37.5846C32.5171 37.6002 39.9449 37.5968 47.3716 37.5913C49.4103 37.5891 50.6943 36.3274 50.6954 34.3053C50.7032 25.2479 50.7032 16.1916 50.6954 7.13412C50.6931 5.23437 49.4003 3.96491 47.5028 3.96491C34.0189 3.96157 20.535 3.96157 7.05112 3.96491C5.24252 3.96491 3.94527 5.22103 3.94304 7.0263C3.93193 16.1949 3.93304 25.3624 3.94304 34.531C3.94416 36.0973 4.93461 37.2378 6.47308 37.5168C7.37349 37.6802 8.2839 37.5757 9.18987 37.5902C10.6138 37.6146 11.3809 38.3683 11.3864 39.8012C11.3931 41.7087 11.3864 43.6162 11.392 45.5249C11.392 45.8337 11.3387 46.1492 11.4707 46.5502C11.4708 46.5506 11.4712 46.5509 11.4717 46.5509V46.5509Z" fill="url(#paint0_linear_339_354)"/>
<path d="M61.5164 27.3233C61.5161 27.3226 61.5159 27.3218 61.5159 27.3209C61.5159 22.8382 61.4692 18.3544 61.537 13.8728C61.567 11.8741 60.0874 10.589 58.4256 10.5279C57.2928 10.4868 56.5269 9.60192 56.5736 8.51476C56.6192 7.45428 57.4874 6.62724 58.5767 6.60945C62.0928 6.54943 65.2898 9.59192 65.4454 13.1002C65.541 15.2489 65.5021 17.3966 65.5043 19.5453C65.5132 26.4551 65.5121 33.366 65.5043 40.2758C65.5032 41.672 65.3976 43.0549 64.7129 44.3221C63.4245 46.7054 61.428 47.9827 58.7235 48.0927C58.181 48.115 57.9854 48.2339 57.992 48.8075C58.0187 51.4565 57.9909 54.1055 58.0065 56.7544C58.012 57.6404 57.7697 58.3774 56.9371 58.7876C56.119 59.1911 55.3786 58.9843 54.655 58.4652C50.6832 55.6161 46.698 52.7837 42.7162 49.948C42.2638 49.6256 41.7625 49.3589 41.36 48.9842C40.5541 48.2361 39.6293 48.0783 38.561 48.0894C34.2079 48.1339 29.8537 48.1138 25.5006 48.105C23.8588 48.1016 22.9339 46.4876 23.7598 45.0914C24.0978 44.52 24.6391 44.2643 25.2761 44.1854C25.4406 44.1654 25.6096 44.1743 25.7763 44.1743C30.6674 44.1743 35.5574 44.1798 40.4485 44.1665C41.0899 44.1654 41.6335 44.3399 42.1537 44.7123C45.8888 47.3857 49.6327 50.0458 53.3744 52.7104C53.3899 52.7215 53.4033 52.7337 53.42 52.7415C53.6112 52.8338 53.7657 53.1228 53.9824 53.0072C54.1581 52.9127 54.0625 52.6315 54.0636 52.4336C54.0691 50.4883 54.0658 48.5429 54.0669 46.5976C54.068 44.9024 54.805 44.1732 56.5147 44.1721C57.1261 44.1721 57.7375 44.1754 58.3489 44.1721C60.2575 44.1598 61.5114 42.9159 61.5147 40.9962C61.5225 36.439 61.517 31.8829 61.517 27.3257C61.517 27.3248 61.5168 27.324 61.5164 27.3233Z" fill="url(#paint1_linear_339_354)"/>
<defs>
<linearGradient id="paint0_linear_339_354" x1="-0.541339" y1="51.8808" x2="50.6778" y2="-3.66741" gradientUnits="userSpaceOnUse">
<stop stop-color="#06D4EF"/>
<stop offset="1" stop-color="#0060B7"/>
</linearGradient>
<linearGradient id="paint1_linear_339_354" x1="23.0358" y1="58.5008" x2="73.6037" y2="16.3081" gradientUnits="userSpaceOnUse">
<stop stop-color="#06D4EF"/>
<stop offset="1" stop-color="#0060B7"/>
</linearGradient>
</defs>
</svg>
