<svg width="26" height="24" viewBox="0 0 26 24" fill="none" xmlns="http://www.w3.org/2000/svg">
<g clip-path="url(#clip0_8_722)">
<path d="M26 0.556139C25.8887 0.775115 25.8225 0.935809 25.7313 1.07985C23.5354 4.55683 21.3363 8.03298 19.1388 11.5083C16.6379 15.4632 14.1363 19.4181 11.6354 23.373C11.5749 23.4687 11.5168 23.567 11.4523 23.6594C11.1554 24.0824 10.7883 24.1149 10.4455 23.7344C9.63553 22.8351 8.83041 21.9309 8.0253 21.0267C6.44815 19.2574 4.8718 17.4881 3.29627 15.718C2.27979 14.5756 1.26493 13.4333 0.250872 12.2893C-0.0226079 11.9804 -0.0710115 11.694 0.0984011 11.455C0.277494 11.2027 0.542101 11.1586 0.909968 11.3359C3.41001 12.5416 5.90845 13.7489 8.40769 14.957C8.98208 15.2342 9.55889 15.5073 10.1292 15.7954C10.3188 15.8912 10.4544 15.8845 10.6084 15.718C12.9455 13.1868 15.2883 10.6599 17.6302 8.13373C19.3445 6.28367 21.0604 4.43444 22.7755 2.58521C23.4935 1.81005 24.2082 1.03239 24.9278 0.259729C25.1763 -0.00753886 25.424 -0.0791434 25.6491 0.0940396C25.7943 0.205609 25.8822 0.395445 26 0.556139Z" fill="#06D4EF"/>
</g>
<defs>
<clipPath id="clip0_8_722">
<rect width="26" height="24" fill="white"/>
</clipPath>
</defs>
</svg>
