<svg width="21" height="21" viewBox="0 0 21 21" fill="none" xmlns="http://www.w3.org/2000/svg">
<path d="M17.9898 9.40625L4.86484 1.91484C4.6436 1.79073 4.38983 1.73688 4.13726 1.76043C3.88468 1.78397 3.64525 1.88381 3.45076 2.04667C3.25628 2.20954 3.11594 2.42772 3.04841 2.67223C2.98087 2.91675 2.98933 3.17603 3.07265 3.41562L5.49452 10.4836C5.49421 10.4862 5.49421 10.4888 5.49452 10.4914C5.49409 10.494 5.49409 10.4966 5.49452 10.4992L3.07265 17.5828C3.00592 17.7713 2.98538 17.973 3.01274 18.1711C3.0401 18.3691 3.11458 18.5577 3.22991 18.7211C3.34525 18.8844 3.49808 19.0176 3.67557 19.1097C3.85307 19.2017 4.05005 19.2498 4.24999 19.25C4.46692 19.2494 4.68004 19.1929 4.86874 19.0859L17.9867 11.582C18.1802 11.4736 18.3414 11.3157 18.4537 11.1245C18.566 10.9332 18.6254 10.7155 18.6258 10.4937C18.6262 10.2719 18.5676 10.054 18.456 9.86237C18.3443 9.67071 18.1837 9.51221 17.9906 9.40312L17.9898 9.40625ZM4.24999 18V17.993L6.60468 11.125H11.125C11.2908 11.125 11.4497 11.0591 11.5669 10.9419C11.6841 10.8247 11.75 10.6658 11.75 10.5C11.75 10.3342 11.6841 10.1753 11.5669 10.0581C11.4497 9.94084 11.2908 9.875 11.125 9.875H6.61093L4.25468 3.00937L4.24999 3L17.375 10.4867L4.24999 18Z" fill="#F5F4F1"/>
</svg>
