<?xml version="1.0" encoding="UTF-8"?>
<svg id="Layer_1" data-name="Layer 1" xmlns="http://www.w3.org/2000/svg" xmlns:xlink="http://www.w3.org/1999/xlink" viewBox="0 0 1156.4 170.41">
  <defs>
    <style>
      .cls-1 {
        fill: url(#linear-gradient);
      }

      .cls-2 {
        fill: #fff;
      }
    </style>
    <linearGradient id="linear-gradient" x1="0" y1="85.22" x2="270.55" y2="85.22" gradientUnits="userSpaceOnUse">
      <stop offset="0" stop-color="#0060b7"/>
      <stop offset=".86" stop-color="#06d4ef"/>
    </linearGradient>
  </defs>
  <path class="cls-1" d="M267.39,17.76s-28.63,17.55-85.88,52.64c-4.71,2.94-6.5,4.09-11.43,4.11,0,0-47.84-2.78-143.51-8.35-13.54,1.71-18.98,23.73,.07,32.99,0,0,5.66,.35,16.7,1.05-.1,4.79-.33,9.56-.7,14.31-5.79-.37-11.75-.76-17.95-1.16-10.03-1.25-18.19-7.91-23.33-20.27-.39-1.52-.71-3.05-.94-4.6-1.06-7.06-.19-14.33,3.43-20.56,3.6-6.19,9.32-10.95,15.69-14.11,0,0,33.73-16.78,101.18-50.34,1.31-.61,3.02-.56,5.81-.29,0,0,47.63,2.95,142.9,8.84,2,1.69,1.31,3.6-2.05,5.74ZM53.38,115.21c75,4.85,112.61,7.28,112.61,7.28,4.93-.07,7.15-1.36,10.58-3.55,57.97-34.68,86.96-52.02,86.96-52.02,3.8-2.12,4.41-4.32,1.83-6.59-7.14-.47-11.79-.65-14.25-.72-50.83,30.3-76.39,45.35-76.39,45.35-3.8,2.07-4.16,2.79-9.34,2.89-51.99-3.26-89.36-5.6-112.12-7.02,0,3.52,.01,7.04,0,10.56,0,1.28,.07,2.55,.14,3.82Zm185.15-20.37c-3.45,0-6.25,2.8-6.25,6.25v16.15l-60.78,37.36-80.84-7.93v-17.92c0-3.46-2.8-6.25-6.25-6.25s-6.25,2.8-6.25,6.25v29.25l96.31,9.45,70.32-43.23v-23.15c0-3.46-2.8-6.25-6.25-6.25ZM53.24,75.13h-9.88c.01,4.79,.02,9.59,.06,14.38,.03,3.58,0,7.14-.09,10.69,2.95,.18,6.17,.39,9.9,.62,0-8.56,.01-17.13,0-25.69Zm-16.36,72.79c-4.63,16.18-3.9,16.39,12.82,16.36,13.18-.02,13.47-.73,10.83-13.54-2.44-11.83-6.45-23.32-7.16-35.53-3.53-.23-7.05-.46-10.74-.69-.88,11.22-2.59,22.34-5.75,33.41Z"/>
  <g>
    <path class="cls-2" d="M400.27,15.21c-6.66-4.22-13.91-6.33-21.76-6.33h-51.28c-3.11,0-5.77,1.08-7.99,3.22-2.22,2.15-3.33,4.85-3.33,8.1V152.96c0,3.26,1,5.96,3,8.1,2,2.15,4.55,3.22,7.66,3.22s5.88-1.07,7.88-3.22c2-2.14,3-4.85,3-8.1v-47.51h41.07c7.84,0,15.1-2.18,21.76-6.55,6.66-4.36,11.99-10.21,15.98-17.54,4-7.33,5.99-15.5,5.99-24.53s-2-17.17-5.99-24.42c-4-7.25-9.32-12.99-15.98-17.21Zm-3.44,55.17c-2,4.15-4.59,7.48-7.77,9.99-3.18,2.52-6.7,3.77-10.54,3.77h-41.07V30.19h41.07c3.85,0,7.36,1.22,10.54,3.66,3.18,2.44,5.77,5.66,7.77,9.66s3,8.44,3,13.32-1,9.4-3,13.54Z"/>
    <path class="cls-2" d="M459.99,0c-3.11,0-5.77,1.08-7.99,3.22-2.22,2.15-3.33,4.85-3.33,8.1V152.96c0,3.26,1.07,5.96,3.22,8.1,2.14,2.15,4.77,3.22,7.88,3.22s5.73-1.07,7.88-3.22c2.14-2.14,3.22-4.85,3.22-8.1V11.32c0-3.25-1-5.96-3-8.1-2-2.14-4.63-3.22-7.88-3.22Z"/>
    <path class="cls-2" d="M589.86,47.51c-3.26,0-5.92,1.08-7.99,3.22-2.07,2.15-3.11,4.85-3.11,8.1v58.39c0,9.62-2.3,16.8-6.88,21.53-4.59,4.74-11.32,7.1-20.2,7.1s-15.36-2.37-19.87-7.1c-4.52-4.73-6.77-11.91-6.77-21.53V58.83c0-3.25-1.08-5.96-3.22-8.1-2.15-2.14-4.77-3.22-7.88-3.22s-5.92,1.08-7.99,3.22c-2.07,2.15-3.11,4.85-3.11,8.1v58.39c0,15.39,4.25,27.42,12.77,36.08,8.51,8.66,20.53,12.99,36.07,12.99s27.82-4.33,36.41-12.99c8.58-8.66,12.88-20.68,12.88-36.08V58.83c0-3.25-1.08-5.96-3.22-8.1-2.15-2.14-4.77-3.22-7.88-3.22Z"/>
    <path class="cls-2" d="M682.43,69.26c2.96,0,5.44-.96,7.44-2.89,2-1.92,3-4.29,3-7.1,0-2.96-1-5.44-3-7.44-2-2-4.48-3-7.44-3h-17.76V31.3c0-3.25-1.04-5.96-3.11-8.1-2.07-2.14-4.74-3.22-7.99-3.22s-5.74,1.08-7.88,3.22-3.22,4.85-3.22,8.1v17.54h-12.21c-2.96,0-5.44,.96-7.44,2.89-2,1.93-3,4.37-3,7.33s1,5.22,3,7.21,4.48,3,7.44,3h12.21v65.93c0,7.1,1.03,12.62,3.11,16.54,2.07,3.92,4.7,6.77,7.88,8.55,3.18,1.78,6.47,2.89,9.88,3.33,3.4,.44,6.36,.67,8.88,.67,4.44,0,8.58-1.11,12.43-3.33,3.85-2.22,5.77-5.11,5.77-8.66,0-2.81-.74-5.03-2.22-6.66-1.48-1.63-3.11-2.44-4.88-2.44s-3.3,.3-4.55,.89c-1.26,.59-2.7,.89-4.33,.89s-3.22-.29-4.77-.89c-1.55-.59-2.77-1.7-3.66-3.33-.89-1.63-1.33-3.77-1.33-6.44V69.26h17.76Z"/>
    <path class="cls-2" d="M813.19,45.73c-3.11,0-5.74,1.11-7.88,3.33-2.15,2.22-3.22,4.88-3.22,7.99v4.21c-1.59-1.82-3.44-3.6-5.55-5.32-4-3.25-8.7-5.92-14.1-7.99-5.4-2.07-11.29-3.11-17.65-3.11-9.92,0-18.91,2.59-26.97,7.77-8.07,5.18-14.47,12.32-19.2,21.42-4.74,9.1-7.1,19.65-7.1,31.64s2.37,22.13,7.1,31.3c4.73,9.18,11.17,16.39,19.31,21.65,8.14,5.26,17.32,7.88,27.53,7.88,5.77,0,11.17-1,16.21-3,5.03-2,9.4-4.51,13.1-7.55,2.93-2.4,5.37-4.88,7.33-7.43v4.43c0,3.26,1.07,5.96,3.22,8.1,2.14,2.15,4.77,3.22,7.88,3.22s5.92-1.07,7.99-3.22c2.07-2.14,3.11-4.85,3.11-8.1V57.05c0-3.25-1.04-5.96-3.11-8.1-2.07-2.14-4.74-3.22-7.99-3.22Zm-26.86,95.02c-5.33,3.55-11.47,5.33-18.43,5.33s-12.84-1.78-18.09-5.33c-5.25-3.55-9.4-8.4-12.43-14.54-3.04-6.14-4.55-12.99-4.55-20.53s1.52-14.58,4.55-20.65c3.03-6.07,7.18-10.88,12.43-14.43,5.25-3.55,11.28-5.33,18.09-5.33s13.1,1.78,18.43,5.33c5.33,3.55,9.47,8.36,12.43,14.43,2.96,6.07,4.44,12.95,4.44,20.65s-1.48,14.4-4.44,20.53c-2.96,6.14-7.1,10.99-12.43,14.54Z"/>
    <path class="cls-2" d="M924.18,47.95c-2.81-2.07-6.14-3.11-9.99-3.11-4.59,0-8.99,.74-13.21,2.22-4.22,1.48-8.03,3.55-11.43,6.22-3.41,2.66-6.33,5.77-8.77,9.32-1.23,1.79-2.31,3.67-3.22,5.61v-9.39c0-3.25-1.08-5.96-3.22-8.1-2.15-2.14-4.77-3.22-7.88-3.22s-5.92,1.08-7.99,3.22c-2.07,2.15-3.11,4.85-3.11,8.1v94.13c0,3.26,1.03,5.96,3.11,8.1,2.07,2.15,4.73,3.22,7.99,3.22s5.73-1.07,7.88-3.22c2.14-2.14,3.22-4.85,3.22-8.1v-53.28c0-5.33,.78-10.14,2.33-14.43,1.55-4.29,3.66-8.03,6.33-11.21,2.66-3.18,5.62-5.58,8.88-7.21,3.25-1.63,6.44-2.44,9.55-2.44,2.81,0,5.25,.48,7.33,1.44,2.07,.96,4.22,1.44,6.44,1.44,2.52,0,4.81-.92,6.88-2.77,2.07-1.85,3.11-4.77,3.11-8.77,0-3.11-1.41-5.7-4.22-7.77Z"/>
    <path class="cls-2" d="M1027.19,136.31c-2.81,0-5,.7-6.55,2.11-1.55,1.41-3.44,2.77-5.66,4.11-2.07,1.04-4.52,1.89-7.33,2.55-2.81,.67-6.44,1-10.88,1-7.4,0-13.88-1.78-19.42-5.33-5.55-3.55-9.92-8.36-13.1-14.43-3.18-6.07-4.77-12.95-4.77-20.65s1.59-14.58,4.77-20.65c3.18-6.07,7.62-10.88,13.32-14.43,5.7-3.55,12.47-5.33,20.31-5.33,2.52,0,5.36,.3,8.55,.89,3.18,.59,5.58,1.33,7.21,2.22,1.78,1.04,3.25,2.07,4.44,3.11,1.18,1.04,2.48,1.93,3.88,2.66,1.41,.74,3.14,1.11,5.22,1.11,2.96,0,5.18-1.07,6.66-3.22,1.48-2.14,2.22-4.47,2.22-6.99,0-4-1.74-7.51-5.22-10.54-3.48-3.03-8.33-5.4-14.54-7.1-6.22-1.7-13.32-2.55-21.31-2.55-11.25,0-21.24,2.66-29.97,7.99-8.73,5.33-15.54,12.54-20.42,21.65-4.88,9.1-7.33,19.5-7.33,31.19s2.33,21.91,6.99,31.08c4.66,9.18,11.25,16.43,19.76,21.76,8.51,5.33,18.54,7.99,30.08,7.99,7.84,0,15.02-.96,21.53-2.89,6.51-1.92,11.73-4.4,15.65-7.44,3.92-3.03,5.88-6.18,5.88-9.44,0-2.96-.85-5.44-2.55-7.44-1.7-2-4.18-3-7.44-3Z"/>
    <path class="cls-2" d="M1152.96,69.71c-2.3-7.4-6.25-13.28-11.88-17.65-5.63-4.36-13.54-6.55-23.75-6.55-5.03,0-9.77,.85-14.21,2.55-4.44,1.7-8.47,3.96-12.1,6.77-3.63,2.81-6.66,5.92-9.1,9.32-.43,.6-.83,1.2-1.22,1.8V11.32c0-3.25-1.08-5.96-3.22-8.1-2.15-2.14-4.77-3.22-7.88-3.22s-5.92,1.08-7.99,3.22c-2.07,2.15-3.11,4.85-3.11,8.1V152.96c0,3.26,1.03,5.96,3.11,8.1,2.07,2.15,4.73,3.22,7.99,3.22s5.73-1.07,7.88-3.22c2.14-2.14,3.22-4.85,3.22-8.1v-58.83c0-5.18,1.22-9.91,3.66-14.21,2.44-4.29,5.92-7.69,10.43-10.21,4.51-2.52,9.66-3.77,15.43-3.77,6.22,0,11.06,1.26,14.54,3.77,3.48,2.52,5.92,5.92,7.33,10.21,1.41,4.29,2.11,9.03,2.11,14.21v58.83c0,3.26,1.03,5.96,3.11,8.1,2.07,2.15,4.73,3.22,7.99,3.22s5.73-1.07,7.88-3.22,3.22-4.85,3.22-8.1v-58.83c0-8.88-1.15-17.02-3.44-24.42Z"/>
  </g>
</svg>