<svg width="150" height="33" viewBox="0 0 236 33" fill="none" xmlns="http://www.w3.org/2000/svg">
<path d="M51.3887 2.96075C51.3887 2.96075 45.8842 6.48813 34.8871 13.5303C33.9857 14.1203 33.6372 14.3463 32.6877 14.3588C32.6877 14.3588 23.4934 13.8065 5.10486 12.6893C2.49681 13.0282 1.45119 17.4594 5.11688 19.3173C5.11688 19.3173 6.19856 19.3926 8.32586 19.5307C8.30183 20.4972 8.26577 21.4513 8.19366 22.4053C7.07592 22.33 5.93416 22.2547 4.74431 22.1668C2.82132 21.9157 1.24687 20.5851 0.261344 18.0996C0.189232 17.7984 0.129136 17.4845 0.0810618 17.1707C-0.123255 15.7522 0.0450094 14.2961 0.742092 13.0408C1.43917 11.798 2.53288 10.844 3.75878 10.2038C3.75878 10.2038 10.2489 6.83962 23.205 0.0986718C23.4574 -0.0268578 23.7819 -0.0143087 24.3227 0.0359032C24.3227 0.0359032 33.4809 0.625897 51.7853 1.80588C52.1699 2.14481 52.0377 2.53395 51.3887 2.96075ZM10.2489 22.5183C24.6592 23.4974 31.8945 23.9744 31.8945 23.9744C32.8439 23.9619 33.2646 23.6982 33.9256 23.2589C45.0669 16.292 50.6436 12.8148 50.6436 12.8148C51.3767 12.388 51.4849 11.9487 50.9921 11.4968C49.622 11.3963 48.7206 11.3712 48.2519 11.3461C38.4807 17.4343 33.565 20.447 33.565 20.447C32.8319 20.8613 32.7718 21.0119 31.7743 21.0245C21.7868 20.3717 14.5996 19.9073 10.2248 19.6185C10.2248 20.3215 10.2248 21.037 10.2248 21.74C10.2248 22.0036 10.2368 22.2547 10.2489 22.5057V22.5183ZM45.8361 18.426C45.1751 18.426 44.6342 18.9909 44.6342 19.6813V22.92L32.9521 30.4266L17.412 28.8324V25.2297C17.412 24.5393 16.8711 23.9744 16.2101 23.9744C15.5491 23.9744 15.0082 24.5393 15.0082 25.2297V31.1045L33.517 33L47.038 24.3259V19.6813C47.038 18.9909 46.4971 18.426 45.8361 18.426ZM10.2248 14.4718H8.32586C8.32586 15.4384 8.32586 16.3924 8.32586 17.359C8.32586 18.0745 8.32587 18.79 8.31385 19.5056C8.87873 19.5432 9.50369 19.5809 10.2128 19.6311C10.2128 17.9113 10.2128 16.1916 10.2128 14.4718H10.2248ZM7.07593 29.0835C6.18655 32.3347 6.33077 32.3724 9.53975 32.3724C12.0757 32.3724 12.1358 32.2217 11.619 29.6484C11.1503 27.2758 10.3811 24.9661 10.2489 22.5183C9.57581 22.4681 8.89075 22.4304 8.18165 22.3802C8.01338 24.6272 7.68888 26.8616 7.07593 29.0835Z" fill="url(#paint0_linear_126_3)"/>
<path d="M70.6977 24.6161H61.4291V6.09104C61.4291 5.47555 61.2119 4.95661 60.7774 4.54628C60.343 4.13595 59.8361 3.93079 59.2689 3.93079C58.6051 3.93079 58.062 4.13595 57.6396 4.54628C57.2172 4.95661 57 5.47555 57 6.09104V26.6074C57 27.2229 57.2052 27.7418 57.6155 28.1522C58.0258 28.5625 58.5448 28.7677 59.1603 28.7677H70.6977C71.3132 28.7677 71.8321 28.5746 72.2424 28.1763C72.6528 27.7901 72.8579 27.2953 72.8579 26.704C72.8579 26.1126 72.6528 25.5816 72.2424 25.1954C71.8321 24.8092 71.3132 24.604 70.6977 24.604V24.6161Z" fill="#F5F4F1"/>
<path d="M91.1057 12.2097C90.273 11.3528 89.3196 10.6649 88.2455 10.1701C87.1714 9.67532 86.0249 9.42188 84.8181 9.42188C83.2613 9.42188 81.7768 9.82013 80.3769 10.6287C78.9769 11.4373 77.8546 12.5838 76.9857 14.0924C76.1167 15.6009 75.6943 17.4112 75.6943 19.5352C75.6943 21.3576 76.0926 22.9868 76.8891 24.435C77.6856 25.8832 78.8201 27.0177 80.2924 27.8625C81.7768 28.7073 83.5147 29.1176 85.5301 29.1176C86.7128 29.1176 87.8593 28.9245 88.9696 28.5262C90.0799 28.14 90.9489 27.6814 91.5643 27.1625C92.2281 26.6436 92.554 26.0643 92.554 25.4246C92.554 24.954 92.385 24.5316 92.035 24.1816C91.6971 23.8316 91.2626 23.6506 90.7437 23.6506C90.3696 23.6506 89.9592 23.7592 89.5369 23.9644C89.2713 24.1092 88.9817 24.2781 88.6679 24.4833C88.3541 24.6885 87.9317 24.8574 87.4128 25.0022C86.8938 25.1471 86.1939 25.2195 85.3129 25.2195C84.3716 25.2195 83.4785 24.9902 82.6337 24.5316C81.7889 24.073 81.1131 23.3971 80.57 22.5041C80.2562 21.9851 80.051 21.3938 79.9183 20.7421H91.6247C92.1919 20.7421 92.6867 20.5611 93.1212 20.2111C93.5556 19.8611 93.7729 19.3904 93.797 18.8232C93.797 17.5439 93.5556 16.3371 93.0729 15.2027C92.5902 14.0682 91.9264 13.0665 91.1057 12.1976V12.2097ZM81.2338 14.5751C81.6803 14.1286 82.2113 13.8027 82.8268 13.6217C83.4423 13.4286 84.106 13.3321 84.8181 13.3321C85.5301 13.3321 86.2422 13.4889 86.8939 13.8148C87.5456 14.1286 88.0886 14.563 88.5231 15.1061C88.9576 15.6492 89.1989 16.2647 89.2472 16.9526V17.206H79.9545C80.0148 16.9164 80.0752 16.6388 80.1597 16.3854C80.4252 15.6251 80.7752 15.0216 81.2217 14.5751H81.2338Z" fill="#F5F4F1"/>
<path d="M110.982 23.8678C110.463 23.8678 110.077 23.9764 109.811 24.1816C109.546 24.3868 109.256 24.5919 108.918 24.785C108.628 24.9298 108.278 25.0385 107.856 25.0988C107.434 25.1591 106.927 25.2074 106.335 25.2074C105.273 25.2074 104.332 24.954 103.511 24.423C102.691 23.904 102.051 23.204 101.592 22.311C101.134 21.4179 100.905 20.4162 100.905 19.2818C100.905 18.1474 101.134 17.0974 101.58 16.2164C102.027 15.3233 102.679 14.6234 103.511 14.1044C104.356 13.5855 105.37 13.32 106.577 13.32C106.818 13.32 107.168 13.3562 107.663 13.4407C108.146 13.5252 108.508 13.6338 108.749 13.7786C109.015 13.9234 109.232 14.0803 109.425 14.2372C109.618 14.4061 109.835 14.5389 110.077 14.6475C110.33 14.7561 110.644 14.8044 111.018 14.8044C111.561 14.8044 111.971 14.5992 112.261 14.1889C112.551 13.7786 112.683 13.3321 112.683 12.8614C112.683 12.1493 112.406 11.5459 111.851 11.039C111.295 10.5322 110.511 10.1339 109.509 9.84427C108.508 9.55463 107.325 9.42188 105.973 9.42188C104.151 9.42188 102.534 9.84427 101.134 10.677C99.7219 11.5218 98.6236 12.6804 97.8271 14.1527C97.0306 15.6371 96.6323 17.3388 96.6323 19.2818C96.6323 21.2248 97.0065 22.7937 97.7547 24.2902C98.5029 25.7867 99.5529 26.9573 100.929 27.8263C102.304 28.6952 103.922 29.1176 105.792 29.1176C107.047 29.1176 108.206 28.9728 109.292 28.6711C110.366 28.3693 111.235 27.9832 111.899 27.5004C112.563 27.0177 112.889 26.4746 112.889 25.8832C112.889 25.2919 112.72 24.8333 112.394 24.4471C112.068 24.0609 111.585 23.8557 110.97 23.8557L110.982 23.8678Z" fill="#F5F4F1"/>
<path d="M124.619 14.032C125.186 14.032 125.657 13.851 126.043 13.4769C126.429 13.1028 126.61 12.6562 126.61 12.1132C126.61 11.5701 126.417 11.0753 126.043 10.6891C125.669 10.315 125.186 10.1219 124.619 10.1219H122.097V7.853C122.097 7.23751 121.904 6.71857 121.517 6.30824C121.131 5.89792 120.624 5.69275 120.009 5.69275C119.393 5.69275 118.874 5.89792 118.464 6.30824C118.054 6.71857 117.849 7.23751 117.849 7.853V10.1219H116.219C115.652 10.1219 115.181 10.3029 114.795 10.677C114.421 11.0391 114.228 11.4977 114.228 12.0408C114.228 12.5838 114.421 13.0786 114.795 13.4648C115.169 13.839 115.652 14.032 116.219 14.032H117.849V23.8316C117.849 24.9902 118.03 25.9074 118.38 26.5591C118.73 27.2108 119.176 27.7177 119.707 28.0315C120.238 28.3452 120.805 28.5504 121.409 28.6349C122.012 28.7194 122.567 28.7556 123.062 28.7556C123.895 28.7556 124.667 28.5383 125.391 28.1159C126.115 27.6935 126.478 27.1505 126.478 26.4867C126.478 25.9436 126.345 25.5212 126.067 25.2074C125.79 24.9057 125.488 24.7488 125.162 24.7488C124.848 24.7488 124.583 24.7971 124.341 24.9057C124.1 25.0143 123.847 25.0626 123.557 25.0626C123.291 25.0626 123.05 25.0143 122.833 24.9178C122.604 24.8212 122.435 24.6644 122.302 24.4592C122.169 24.242 122.109 23.9765 122.109 23.6385V14.02H124.631L124.619 14.032Z" fill="#F5F4F1"/>
<path d="M144.592 9.77185C143.977 9.77185 143.47 9.97701 143.072 10.3873C142.674 10.7977 142.468 11.3166 142.468 11.9321V20.9472C142.468 22.3955 142.155 23.4575 141.515 24.1574C140.875 24.8574 139.91 25.2074 138.607 25.2074C137.303 25.2074 136.374 24.8574 135.734 24.1574C135.095 23.4575 134.781 22.3834 134.781 20.9472V11.9321C134.781 11.3166 134.576 10.7977 134.177 10.3873C133.779 9.97701 133.272 9.77185 132.657 9.77185C132.041 9.77185 131.534 9.97701 131.136 10.3873C130.738 10.7977 130.533 11.3166 130.533 11.9321V20.9472C130.533 23.4575 131.221 25.4488 132.608 26.9091C133.996 28.3693 136 29.1055 138.631 29.1055C141.262 29.1055 143.265 28.3693 144.665 26.9091C146.065 25.4367 146.765 23.4575 146.765 20.9472V11.9321C146.765 11.3166 146.56 10.7977 146.161 10.3873C145.763 9.97701 145.256 9.77185 144.641 9.77185H144.592Z" fill="#F5F4F1"/>
<path d="M162.997 10.0253C162.514 9.62704 161.91 9.42188 161.198 9.42188C160.607 9.42188 160.016 9.49429 159.424 9.63911C158.833 9.78393 158.278 10.0012 157.759 10.2908C157.24 10.5925 156.769 10.9546 156.359 11.389C156.057 11.7028 155.816 12.0649 155.599 12.4511V11.9321C155.599 11.3166 155.394 10.7977 154.995 10.3874C154.597 9.97702 154.078 9.77186 153.475 9.77186C152.871 9.77186 152.352 9.97702 151.954 10.3874C151.556 10.7977 151.351 11.3166 151.351 11.9321V26.5953C151.351 27.2108 151.556 27.7297 151.954 28.14C152.352 28.5504 152.859 28.7555 153.475 28.7555C154.09 28.7555 154.597 28.5504 154.995 28.14C155.394 27.7297 155.599 27.2108 155.599 26.5953V18.1836C155.599 17.3267 155.707 16.5905 155.937 15.963C156.166 15.3354 156.456 14.8044 156.83 14.382C157.192 13.9596 157.602 13.6458 158.037 13.4407C158.471 13.2355 158.905 13.139 159.328 13.139C159.799 13.139 160.221 13.2234 160.583 13.3924C160.945 13.5614 161.355 13.6458 161.802 13.6458C162.273 13.6458 162.719 13.4769 163.117 13.1269C163.516 12.789 163.721 12.2218 163.721 11.4373C163.721 10.8942 163.479 10.4236 162.997 10.0132V10.0253Z" fill="#F5F4F1"/>
<path d="M182.499 20.2111C182.922 19.8611 183.151 19.3904 183.175 18.8232C183.175 17.5439 182.934 16.3371 182.451 15.2026C181.968 14.0682 181.304 13.0665 180.484 12.1976C179.651 11.3407 178.698 10.6528 177.623 10.158C176.549 9.66323 175.403 9.40979 174.196 9.40979C172.639 9.40979 171.155 9.80805 169.755 10.6166C168.355 11.4252 167.233 12.5717 166.364 14.0803C165.495 15.5888 165.072 17.3991 165.072 19.5232C165.072 21.3455 165.471 22.9747 166.267 24.4229C167.064 25.8712 168.198 27.0056 169.67 27.8504C171.143 28.6952 172.893 29.1055 174.908 29.1055C176.091 29.1055 177.237 28.9124 178.348 28.5141C179.458 28.128 180.327 27.6694 180.942 27.1504C181.606 26.6315 181.932 26.0522 181.932 25.4126C181.932 24.9419 181.763 24.5195 181.413 24.1695C181.063 23.8195 180.641 23.6385 180.122 23.6385C179.748 23.6385 179.337 23.7471 178.915 23.9523C178.649 24.0971 178.36 24.2661 178.046 24.4712C177.732 24.6764 177.31 24.8453 176.791 24.9902C176.272 25.135 175.572 25.2074 174.691 25.2074C173.749 25.2074 172.856 24.9781 172.012 24.5195C171.167 24.0609 170.491 23.3851 169.948 22.492C169.634 21.973 169.429 21.3817 169.296 20.73H181.003C181.57 20.73 182.065 20.549 182.499 20.199V20.2111ZM170.612 14.563C171.058 14.1165 171.589 13.7906 172.205 13.6096C172.82 13.4165 173.484 13.32 174.196 13.32C174.908 13.32 175.62 13.4769 176.272 13.8027C176.923 14.1165 177.467 14.5509 177.901 15.094C178.335 15.6371 178.577 16.2526 178.625 16.9405V17.1939H169.332C169.393 16.9043 169.453 16.6267 169.538 16.3733C169.803 15.613 170.153 15.0096 170.6 14.563H170.612Z" fill="#F5F4F1"/>
<path d="M213.032 4.48587C213.479 4.88413 213.708 5.40307 213.708 6.0427V26.5953C213.708 27.2108 213.503 27.7297 213.104 28.14C212.706 28.5504 212.175 28.7555 211.511 28.7555C210.848 28.7555 210.305 28.5504 209.894 28.14C209.484 27.7297 209.279 27.2108 209.279 26.5953V12.3062L203.426 21.2369C203.208 21.5024 202.943 21.7196 202.629 21.9127C202.315 22.1058 201.989 22.1903 201.652 22.1662C201.35 22.1903 201.036 22.1058 200.71 21.9127C200.396 21.7196 200.119 21.5024 199.914 21.2369L194.06 11.9804V26.5953C194.06 27.2108 193.867 27.7297 193.493 28.14C193.119 28.5504 192.612 28.7555 191.997 28.7555C191.381 28.7555 190.923 28.5504 190.536 28.14C190.162 27.7297 189.969 27.2108 189.969 26.5953V6.0427C189.969 5.45135 190.186 4.94447 190.621 4.52208C191.055 4.09968 191.586 3.88245 192.202 3.88245C192.528 3.88245 192.878 3.96693 193.252 4.14795C193.614 4.32898 193.891 4.55828 194.085 4.83586L201.808 16.7353L209.774 4.83586C210.22 4.19623 210.799 3.88245 211.511 3.88245C212.079 3.88245 212.586 4.08761 213.032 4.48587ZM233.729 20.7421H222.023C222.156 21.3938 222.361 21.9851 222.675 22.5041C223.206 23.3971 223.894 24.0609 224.738 24.5316C225.583 24.9902 226.476 25.2195 227.418 25.2195C228.299 25.2195 228.987 25.1471 229.518 25.0022C230.037 24.8574 230.459 24.6885 230.773 24.4833C231.086 24.2781 231.376 24.1092 231.642 23.9643C232.064 23.7471 232.474 23.6506 232.848 23.6506C233.367 23.6506 233.802 23.8316 234.14 24.1816C234.478 24.5316 234.659 24.954 234.659 25.4246C234.659 26.0643 234.333 26.6435 233.669 27.1625C233.054 27.6814 232.185 28.14 231.074 28.5262C229.964 28.9124 228.818 29.1176 227.635 29.1176C225.619 29.1176 223.882 28.6952 222.397 27.8625C220.913 27.0177 219.778 25.8832 218.994 24.435C218.197 22.9868 217.799 21.3576 217.799 19.5352C217.799 17.4112 218.234 15.5888 219.09 14.0924C219.947 12.5959 221.082 11.4373 222.482 10.6287C223.882 9.82012 225.354 9.42187 226.923 9.42187C228.13 9.42187 229.276 9.67531 230.35 10.1701C231.424 10.6649 232.378 11.3528 233.211 12.2097C234.043 13.0786 234.695 14.0682 235.178 15.2147C235.66 16.3492 235.902 17.556 235.902 18.8353C235.878 19.4025 235.648 19.8611 235.226 20.2231C234.804 20.5852 234.309 20.7541 233.729 20.7541V20.7421ZM222.264 16.3733C222.18 16.6267 222.108 16.9043 222.059 17.194H231.352V16.9405C231.304 16.2526 231.062 15.6371 230.628 15.094C230.193 14.551 229.65 14.1165 228.999 13.8027C228.347 13.4889 227.659 13.32 226.923 13.32C226.187 13.32 225.547 13.4165 224.932 13.6096C224.316 13.8027 223.785 14.1165 223.339 14.563C222.892 15.0096 222.53 15.613 222.276 16.3733H222.264Z" fill="url(#paint1_linear_126_3)"/>
<defs>
<linearGradient id="paint0_linear_126_3" x1="-0.515041" y1="32.6855" x2="28.2835" y2="-14.4807" gradientUnits="userSpaceOnUse">
<stop stop-color="#06D4EF"/>
<stop offset="1" stop-color="#0060B7"/>
</linearGradient>
<linearGradient id="paint1_linear_126_3" x1="189.514" y1="28.8771" x2="209.971" y2="-9.82407" gradientUnits="userSpaceOnUse">
<stop stop-color="#06D4EF"/>
<stop offset="1" stop-color="#0060B7"/>
</linearGradient>
</defs>
</svg>
