<svg width="365" height="121" viewBox="0 0 365 121" fill="none" xmlns="http://www.w3.org/2000/svg">
<path d="M325.561 106.641C323.832 106.591 322.302 107.935 320.514 107.706C319.687 108.75 318.557 108.225 317.583 108.545C317.215 109.064 316.59 108.622 316.227 109.201C315.595 109.25 314.968 109.36 314.336 109.409C314.003 109.802 313.543 109.715 313.137 109.747C312.821 109.771 312.45 109.677 312.258 110.121C311.671 110.166 311.089 110.273 310.503 110.318C310.21 110.647 309.845 110.614 309.529 110.639C309.258 110.66 308.938 110.623 308.695 111.009C306.465 110.937 304.394 112.323 302.159 112.189C301.741 112.65 301.226 112.445 300.734 112.544C300.423 112.63 300.003 112.478 299.765 112.926C298.862 112.995 298.01 113.123 297.107 113.193C296.604 113.722 295.948 113.466 295.366 113.572C295.055 113.658 294.635 113.506 294.397 113.954C293.405 114.03 292.417 114.168 291.424 114.245C290.699 114.852 289.814 114.553 289.006 114.677C288.65 114.766 288.23 114.615 287.947 115.065C286.638 115.167 285.38 115.325 284.071 115.426C283.824 115.752 283.503 115.715 283.142 115.743C282.24 115.813 281.337 115.883 280.435 115.953C280.164 115.974 279.893 115.995 279.691 116.317C277.841 116.46 275.996 116.664 274.146 116.807C273.854 117.136 273.488 117.103 273.172 117.127C271.052 117.291 268.931 117.455 266.81 117.619C266.494 117.644 266.124 117.55 265.931 117.994C257.899 118.615 249.868 119.236 241.881 119.854C241.622 119.445 241.271 119.595 240.955 119.62C238.789 119.787 236.623 119.955 234.412 120.126C234.051 120.154 233.695 120.242 233.401 119.959C231.46 120.109 229.515 120.198 227.575 120.348C227.326 120.061 227.01 120.086 226.694 120.11C225.611 120.194 224.528 120.278 223.491 120.358C223.175 120.382 222.859 120.407 222.524 120.187C220.945 120.31 219.316 120.374 217.736 120.497C217.487 120.21 217.217 120.23 216.946 120.251C215.998 120.325 215.051 120.398 214.103 120.471C213.787 120.496 213.471 120.52 213.137 120.301C211.602 120.42 210.064 120.477 208.484 120.6C208.235 120.313 207.964 120.333 207.694 120.354C206.836 120.421 205.979 120.487 205.167 120.55C204.851 120.574 204.535 120.599 204.2 120.38C202.711 120.495 201.218 120.549 199.729 120.664C199.479 120.377 199.209 120.398 198.938 120.419C198.081 120.485 197.223 120.552 196.411 120.614C196.095 120.639 195.779 120.663 195.445 120.444C194.181 120.542 192.958 120.575 191.695 120.673C191.446 120.386 191.175 120.407 190.904 120.428C190.137 120.487 189.415 120.543 188.648 120.602C188.377 120.623 188.107 120.644 187.862 120.418C186.689 120.509 185.466 120.542 184.293 120.633C183.944 120.231 183.552 120.445 183.186 120.412C182.455 120.346 181.761 120.767 181.047 120.333C179.964 120.416 178.876 120.439 177.748 120.526C177.399 120.125 177.007 120.339 176.642 120.306C176.005 120.294 175.392 120.586 174.818 120.202C173.825 120.278 172.828 120.294 171.835 120.371C171.536 120.027 171.184 120.176 170.819 120.143C170.227 120.128 169.615 120.42 169.04 120.036C168.047 120.113 167.05 120.129 166.057 120.205C165.709 119.803 165.317 120.018 164.951 119.985C164.314 119.973 163.702 120.265 163.127 119.881C162.225 119.95 161.318 119.959 160.46 120.026C160.111 119.624 159.719 119.838 159.354 119.805C158.808 119.786 158.24 120.075 157.665 119.69C156.763 119.76 155.856 119.769 154.998 119.835C154.65 119.434 154.258 119.648 153.892 119.615C153.346 119.596 152.778 119.885 152.204 119.5C151.301 119.57 150.394 119.579 149.537 119.645C149.233 119.24 148.886 119.45 148.52 119.417C148.064 119.391 147.627 119.609 147.193 119.275C146.336 119.341 145.519 119.343 144.661 119.41C144.358 119.004 144.011 119.215 143.645 119.182C143.144 119.159 142.662 119.381 142.182 119.05C141.28 119.12 140.418 119.125 139.515 119.195C139.216 118.851 138.865 119 138.499 118.967C138.043 118.941 137.606 119.159 137.172 118.825C136.45 118.881 135.678 118.879 134.956 118.935C134.652 118.53 134.306 118.74 133.94 118.707C133.484 118.681 133.047 118.899 132.612 118.565C131.89 118.621 131.119 118.619 130.397 118.675C130.098 118.33 129.791 118.477 129.471 118.44C129.155 118.465 128.839 118.489 128.504 118.27C127.782 118.326 127.011 118.324 126.289 118.38C125.985 117.975 125.638 118.185 125.272 118.152C124.816 118.126 124.379 118.344 123.945 118.01C123.358 118.055 122.772 118.101 122.18 118.085C121.877 117.68 121.53 117.89 121.164 117.857C120.708 117.831 120.271 118.049 119.837 117.715C119.25 117.76 118.659 117.745 118.072 117.79C117.773 117.446 117.467 117.592 117.146 117.555C116.831 117.58 116.519 117.665 116.18 117.385C115.593 117.431 115.007 117.476 114.415 117.46C114.116 117.116 113.81 117.262 113.489 117.226C113.174 117.25 112.862 117.335 112.523 117.055C111.936 117.101 111.345 117.085 110.759 117.131C110.46 116.786 110.153 116.932 109.833 116.896C109.517 116.92 109.206 117.006 108.866 116.726C108.28 116.771 107.688 116.755 107.102 116.801C106.803 116.456 106.496 116.602 106.176 116.566C105.86 116.59 105.549 116.676 105.209 116.396C104.713 116.434 104.257 116.408 103.761 116.446C102.587 116.537 101.384 115.65 100.194 116.11C99.8949 115.765 99.5885 115.911 99.2679 115.875C98.9521 115.899 98.6409 115.985 98.3015 115.705C97.6698 115.754 96.8765 116.06 96.3518 115.733C95.4427 115.129 94.6089 115.5 93.7375 115.384C93.4385 115.039 93.132 115.185 92.8114 115.149C92.4956 115.173 92.1845 115.259 91.845 114.979C91.3487 115.017 90.7762 115.245 90.3513 115.033C89.2664 114.504 88.0857 115.086 87.0958 114.611C86.1509 114.132 85.3172 114.503 84.441 114.326C83.4699 114.095 82.4846 113.681 81.506 113.94C81.0124 113.427 80.4184 113.963 79.9295 113.511C78.4997 113.805 77.1016 112.749 75.6813 113.165C74.8435 112.311 73.9074 113.119 73.1026 112.691C72.0675 112.22 71.0579 112.665 70.1629 112.244C69.408 111.874 68.624 112.302 68.0449 111.857C67.2213 111.185 66.24 111.996 65.4831 111.013C65.4332 110.956 65.3881 110.959 65.3477 111.024C64.2432 111.416 63.1488 110.765 62.0828 110.48C61.247 110.238 60.2732 110.559 59.5256 109.697L59.4758 109.64C58.6373 109.95 57.8541 109.214 57.0682 109.03C56.2371 108.849 55.2492 108.987 54.4612 108.19C54.4114 108.132 54.3663 108.136 54.3212 108.139C53.3642 108.091 52.3836 107.738 51.5196 107.131C51.4698 107.073 51.3795 107.08 51.2893 107.087C50.2467 107.107 49.2878 106.445 48.3166 106.214C47.6209 106.023 46.8754 105.774 46.2202 105.519C45.5602 105.202 44.7668 105.508 44.2045 104.694C44.1547 104.637 44.0146 104.586 43.9244 104.593C43.1714 104.835 42.4879 104.214 41.8326 103.959C40.8972 103.602 39.9213 103.31 39.0075 102.645C38.2882 102.15 37.4383 101.725 36.6834 101.355C36.2086 101.085 35.6887 100.819 35.2496 100.424C34.4307 99.8133 33.562 99.1452 32.7431 98.5346C31.6797 97.6978 30.5261 96.868 29.615 95.6518C28.7584 94.5539 27.7307 93.5917 26.9549 92.3651C26.4876 91.6047 25.9657 90.726 25.4936 89.9047C25.0262 89.1443 25.2122 88.0271 24.5333 87.4669C24.4337 87.352 24.4054 86.9866 24.3818 86.6821C24.2264 84.6721 23.9806 82.6692 23.9652 80.7097C23.9801 79.7282 24.1256 78.6753 24.461 77.7303C24.6537 77.2865 24.6968 76.6705 24.8847 76.1658C25.144 75.4105 25.3582 74.6586 25.6175 73.9033C26.3241 71.888 27.3842 70.3355 28.4349 68.6611C29.1219 67.5664 29.695 66.1741 30.5861 65.3699C31.1801 64.8338 31.7149 64.1184 32.3089 63.5823C32.9884 62.9783 33.7629 62.4282 34.2337 61.4727C34.5119 60.961 34.9537 60.8043 35.2554 60.5971C35.9848 60.0505 36.6192 59.45 37.3937 58.8999C37.781 58.6249 38.313 58.4612 38.5865 57.8886C38.7077 57.6954 38.8431 57.6849 38.9738 57.6136C39.691 57.4968 40.1806 56.785 40.7888 56.4315C41.3114 56.146 41.6657 55.4446 42.3068 55.5176C42.853 55.5366 43.212 54.8961 43.6895 54.6141C43.9959 54.4679 44.3973 54.3755 44.6041 54.1145C45.1436 53.46 45.8749 53.526 46.469 52.9899C46.8919 52.5895 47.4549 52.2396 48.0227 51.9506C48.676 51.5937 49.4478 51.5953 49.9327 50.8225C49.9731 50.7581 50.1085 50.7476 50.194 50.6797C51.0325 50.3698 51.871 50.0599 52.5862 49.3305C52.6266 49.2661 52.7169 49.2592 52.8071 49.2522C53.7331 49.4869 54.5884 48.808 55.1373 48.2754C55.8573 47.607 56.9065 48.2611 57.4036 47.0585C58.2347 47.2393 58.8051 46.3986 59.5581 46.1565C60.4417 45.8431 61.4795 45.7628 62.2304 44.9082C62.2304 44.9082 62.2708 44.8438 62.3207 44.9012C63.3369 45.129 64.0785 44.1525 65.0166 43.9574C66.045 43.7553 67.1091 43.4279 67.955 42.6272C67.9954 42.5628 68.0405 42.5593 68.0856 42.5559C69.3275 42.7661 70.4442 41.9445 71.4988 41.4953C72.5084 41.0496 73.7145 41.3852 74.582 40.2764C74.6224 40.2121 74.6675 40.2086 74.7127 40.2051C76.1707 40.2761 77.3897 39.0176 78.8572 39.2105C79.1044 38.885 79.5199 38.9754 79.7624 38.589C80.2587 38.5506 80.7645 38.634 81.1565 38.4199C82.3229 37.6557 83.6692 38.0417 84.7548 37.4063C85.6243 36.9101 86.4459 36.9691 87.2891 36.7201C87.5814 36.3911 87.9471 36.4241 88.263 36.3996C88.5337 36.3787 88.8543 36.4152 89.0516 36.0323C89.6382 35.9869 90.2201 35.8806 90.8067 35.8352C91.0538 35.5098 91.4195 35.5427 91.7354 35.5183C92.0061 35.4974 92.2769 35.4764 92.4789 35.1544C93.1557 35.1021 93.873 34.9853 94.5498 34.933C94.8825 34.5396 95.3432 34.6265 95.7493 34.5951C96.0651 34.5707 96.4308 34.6036 96.6282 34.2208C97.5757 34.1475 98.5186 34.0132 99.4662 33.9399C100.015 33.4073 100.67 33.663 101.252 33.5567C101.608 33.4679 102.029 33.6192 102.312 33.1684C103.62 33.0672 104.879 32.9085 106.187 32.8073C106.435 32.4818 106.755 32.5183 107.116 32.4904C108.38 32.3926 109.643 32.2949 110.952 32.1937C111.267 32.1692 111.543 32.2092 111.785 31.8228C116.433 31.4633 121.08 31.1038 125.728 30.7442C125.977 31.0313 126.293 31.0069 126.609 30.9824C127.827 30.8882 129.046 30.794 130.264 30.6997C130.58 30.6753 130.896 30.6508 131.23 30.87C131.772 30.8282 132.318 30.8472 132.9 30.7409C133.752 30.6137 134.441 31.2957 135.186 31.5444C136.117 31.84 136.038 32.5813 136.149 33.4305C136.246 34.097 135.873 34.5548 135.567 34.701C134.913 35.0579 134.379 35.7733 133.593 35.589C133.345 35.9145 133.03 35.9389 132.669 35.9668C131.811 36.0332 130.954 36.0995 130.142 36.1623C129.871 36.1832 129.6 36.2042 129.398 36.5262C126.871 36.7216 124.304 36.9815 121.777 37.177C121.485 37.506 121.119 37.473 120.803 37.4974C118.638 37.665 116.472 37.8325 114.261 38.0035C113.945 38.028 113.579 37.995 113.382 38.3779C111.396 38.5315 109.416 38.746 107.385 38.903C107.138 39.2285 106.817 39.192 106.457 39.22C105.554 39.2898 104.652 39.3596 103.749 39.4294C103.478 39.4503 103.208 39.4713 103.006 39.7933C101.878 39.8805 100.709 40.0322 99.5811 40.1195C99.0773 40.6486 98.422 40.3929 97.8401 40.4992C97.4839 40.588 97.1087 40.4332 96.871 40.8805C96.0588 40.9434 95.2964 41.0636 94.4842 41.1264C94.1064 41.5233 93.6457 41.4364 93.1945 41.4713C92.8834 41.5566 92.4631 41.4053 92.2254 41.8526C91.5034 41.9085 90.7411 42.0287 90.0191 42.0846C89.7268 42.4135 89.3611 42.3805 89.0453 42.405C88.7745 42.4259 88.454 42.3895 88.2566 42.7724C87.67 42.8177 87.0881 42.924 86.5016 42.9694C86.1284 43.4271 85.5089 43.0462 85.1452 43.6258C83.7228 43.4294 82.5038 44.6879 81.0909 44.6134C79.9534 44.5788 78.9175 45.2717 77.9033 45.6565C77.1503 45.8985 76.2338 45.7856 75.6398 46.3217C74.7083 47.1903 73.4288 46.4928 72.6515 47.5945C72.6111 47.6589 72.566 47.6624 72.5209 47.6659C71.3692 47.4486 70.3334 48.1415 69.4235 48.702C68.5992 49.1947 67.5735 48.8451 66.9721 49.872L66.9317 49.9364C66.0104 49.7626 65.345 50.5493 64.5516 50.8558C63.5825 51.2371 62.5945 51.3748 61.7486 52.1755C61.6631 52.2434 61.5775 52.3113 61.4826 52.2573C60.5566 52.0226 59.8959 52.8703 59.1025 53.1767C58.093 53.6224 57.0383 54.0717 56.0382 54.6392C55.1236 55.1388 54.2541 55.635 53.3348 56.0737C52.5057 56.5055 51.6316 56.9408 50.9022 57.4873C50.3486 57.9591 49.6125 57.8322 49.0824 58.6085C48.7948 58.9983 48.0635 58.9324 47.6499 59.4545C47.0653 60.1125 46.2531 60.1753 45.614 60.7149C45.1863 61.0543 44.564 61.225 44.0912 61.568C43.6232 61.9718 43.141 62.1929 42.7227 62.6542C42.3853 62.9866 41.9623 63.387 41.6465 63.4114C40.6181 63.6135 39.917 64.5255 39.1021 65.14C38.5841 65.4864 38.1086 66.381 37.5409 66.67C36.7974 67.0339 36.5212 68.1581 35.7588 68.2784C35.4477 68.3637 35.5211 68.7257 35.35 68.8614C34.5304 69.415 33.9195 70.3201 33.2043 71.0494C32.4843 71.7178 31.9778 72.7986 31.3716 73.7646C31.0888 74.2153 30.7608 74.6696 30.5776 75.2352C30.0805 76.4378 29.3982 77.5935 29.1362 78.9005C28.7408 80.8305 28.6706 82.8578 29.142 84.8433C29.2746 85.3845 29.4261 86.1693 29.915 86.6217C30.2545 86.9018 30.4012 87.6256 30.5198 87.9841C30.9346 89.2387 31.7892 89.7241 32.4013 90.5958C32.9589 91.3492 33.5663 92.16 34.231 92.5375C34.9456 92.9724 35.4984 93.6648 36.2581 94.0962C37.0177 94.5276 37.8582 94.8303 38.5465 95.5123C38.8906 95.8533 39.3014 95.8828 39.6361 96.102C40.5857 96.6412 41.5352 97.1805 42.4848 97.7197C43.0047 97.9859 43.596 98.0014 44.1206 98.3284C45.0796 98.9895 46.2029 98.8414 47.0905 99.753C47.1902 99.8679 47.3256 99.8574 47.4609 99.8469C48.2186 99.6658 48.9425 100.222 49.5527 100.482C50.1676 100.802 50.9515 100.373 51.433 101.317C51.4377 101.377 51.5731 101.367 51.6633 101.36C52.5469 101.047 53.4513 101.589 54.116 101.967C54.7807 102.344 55.6004 101.791 56.0414 102.798C56.0414 102.798 56.0866 102.795 56.1317 102.791C57.0557 102.413 57.9743 103.139 58.8551 103.377C59.7313 103.554 60.724 103.478 61.5523 104.21C61.6022 104.267 61.6473 104.264 61.6924 104.26C62.6616 103.879 63.6205 104.54 64.461 104.843C65.3466 105.142 66.3609 104.757 67.1535 105.615C67.2033 105.672 67.2485 105.669 67.2936 105.665C68.4883 105.266 69.718 105.907 70.8293 106.188C71.8953 106.473 73.0402 106.017 74.0632 106.918C74.113 106.976 74.1582 106.972 74.2033 106.969C75.5832 106.617 76.9409 107.737 78.271 107.328C78.5747 107.734 79.0522 107.452 79.3963 107.793C79.9829 107.747 80.5742 107.763 81.1608 107.717C81.5097 108.119 81.942 107.841 82.2862 108.182C82.8276 108.14 83.4452 107.908 83.9153 108.117C85.1807 108.632 86.4967 108.04 87.717 108.558C88.7972 109.026 89.7663 108.645 90.7779 108.812C91.0769 109.156 91.3833 109.01 91.7039 109.046C91.9746 109.025 92.2453 109.004 92.4898 109.231C92.9861 109.192 93.4825 109.154 93.9835 109.176C95.4914 109.305 97.0229 109.738 98.4978 109.44C98.7968 109.784 99.1032 109.638 99.4238 109.675C99.7396 109.65 100.051 109.565 100.39 109.845C100.977 109.799 101.604 109.69 102.2 109.766C103.708 109.895 105.239 110.328 106.714 110.03C107.013 110.374 107.319 110.228 107.64 110.264C107.956 110.24 108.267 110.155 108.606 110.435C109.328 110.379 110.1 110.38 110.822 110.325C111.121 110.669 111.428 110.523 111.748 110.559C112.064 110.535 112.375 110.449 112.715 110.73C113.437 110.674 114.208 110.675 114.93 110.619C115.229 110.964 115.536 110.818 115.856 110.854C116.222 110.887 116.619 110.734 116.958 111.014C117.635 110.962 118.362 110.967 119.038 110.914C119.342 111.32 119.689 111.109 120.055 111.142C120.511 111.168 120.948 110.951 121.382 111.285C122.104 111.229 122.876 111.23 123.598 111.174C123.897 111.519 124.203 111.373 124.524 111.409C124.84 111.385 125.151 111.299 125.49 111.579C126.212 111.524 126.984 111.525 127.706 111.469C128.01 111.875 128.356 111.664 128.722 111.697C129.178 111.723 129.615 111.505 130.05 111.839C130.636 111.794 131.227 111.81 131.814 111.764C132.118 112.17 132.465 111.959 132.83 111.992C133.286 112.018 133.723 111.8 134.158 112.134C134.88 112.079 135.651 112.08 136.373 112.024C136.677 112.43 137.024 112.219 137.39 112.252C137.846 112.278 138.283 112.06 138.717 112.394C139.439 112.339 140.211 112.34 140.933 112.284C141.232 112.629 141.538 112.483 141.859 112.519C142.27 112.548 142.707 112.331 143.096 112.668C143.728 112.619 144.419 112.75 145.036 112.518C145.879 112.269 146.627 113.13 147.475 112.942C148.327 112.815 149.189 112.81 150.006 112.808C150.31 113.213 150.657 113.003 151.023 113.036C151.478 113.062 151.916 112.844 152.35 113.178C153.162 113.115 153.934 113.117 154.746 113.054C155.05 113.459 155.397 113.249 155.762 113.282C156.263 113.304 156.746 113.083 157.225 113.414C157.857 113.365 158.489 113.316 159.125 113.328C160.98 113.246 162.81 114.023 164.632 113.515C164.936 113.92 165.282 113.709 165.648 113.742C166.149 113.765 166.631 113.544 167.111 113.874C167.968 113.808 168.785 113.806 169.643 113.74C169.991 114.142 170.383 113.927 170.749 113.96C171.295 113.979 171.863 113.69 172.437 114.075C173.34 114.005 174.202 114 175.104 113.93C175.403 114.274 175.755 114.125 176.121 114.158C176.576 114.184 177.014 113.966 177.448 114.3C178.486 114.22 179.528 114.2 180.566 114.12C180.915 114.522 181.307 114.308 181.673 114.341C182.219 114.36 182.787 114.071 183.361 114.455C184.399 114.375 185.441 114.356 186.479 114.275C186.828 114.677 187.22 114.463 187.586 114.496C188.407 114.555 189.191 114.127 190.041 114.551C191.305 114.453 192.528 114.42 193.791 114.322C194.04 114.61 194.311 114.589 194.582 114.568C195.349 114.508 196.071 114.452 196.838 114.393C197.108 114.372 197.379 114.351 197.624 114.577C199.022 114.469 200.426 114.422 201.825 114.314C202.074 114.601 202.345 114.58 202.615 114.559C203.563 114.486 204.51 114.412 205.458 114.339C205.774 114.315 206.09 114.29 206.424 114.509C208.004 114.387 209.633 114.322 211.212 114.2C211.466 114.548 211.777 114.463 212.093 114.438C213.176 114.355 214.259 114.271 215.297 114.191C215.613 114.166 215.928 114.142 216.263 114.361C218.023 114.225 219.742 114.153 221.502 114.017C221.751 114.304 222.067 114.28 222.383 114.255C223.421 114.175 224.413 114.098 225.451 114.018C225.767 113.993 226.083 113.969 226.418 114.188C228.899 113.996 231.431 113.862 233.913 113.67C234.162 113.957 234.478 113.932 234.794 113.908C245.758 113.06 256.768 112.208 267.733 111.36C268.049 111.335 268.324 111.375 268.567 110.989C271.455 110.765 274.338 110.481 277.271 110.254C277.518 109.929 277.838 109.965 278.199 109.937C279.372 109.847 280.546 109.756 281.719 109.665C282.035 109.641 282.31 109.681 282.553 109.294C283.997 109.182 285.436 109.01 286.88 108.898C287.604 108.291 288.49 108.59 289.297 108.466C289.654 108.377 290.074 108.529 290.357 108.078C291.44 107.994 292.518 107.849 293.646 107.762C294.195 107.229 294.85 107.485 295.432 107.379C295.788 107.29 296.209 107.441 296.491 106.99C297.394 106.921 298.246 106.793 299.149 106.724C299.527 106.327 299.987 106.414 300.439 106.379C300.75 106.293 301.17 106.445 301.408 105.997C302.13 105.942 302.892 105.821 303.614 105.766C303.992 105.369 304.453 105.456 304.904 105.421C305.215 105.335 305.635 105.487 305.873 105.039C306.459 104.994 307.046 104.949 307.628 104.842C307.92 104.513 308.286 104.546 308.602 104.522C308.873 104.501 309.193 104.537 309.436 104.151C310.158 104.095 310.92 103.975 311.642 103.919C312.015 103.461 312.635 103.842 312.998 103.263C313.495 103.224 313.996 103.247 314.483 103.087C315.813 102.677 317.157 102.451 318.437 101.984C319.231 101.678 320.247 101.905 320.831 101.248C321.713 100.322 323.007 101.202 323.775 99.9782C323.815 99.9138 323.86 99.9104 323.91 99.9678C325.107 100.182 326.188 99.4852 327.097 98.9247C328.048 98.2997 329.228 98.8824 329.955 97.7233C329.955 97.7233 330 97.7198 330.045 97.7163C331.062 97.944 331.858 97.0859 332.736 96.7116C333.525 96.3442 334.532 96.4501 335.188 95.5416C335.228 95.4772 335.314 95.4093 335.409 95.4632C336.335 95.698 337.1 95.0261 337.784 94.483C338.514 93.9364 339.544 94.3468 340.096 93.2625C340.136 93.1981 340.271 93.1877 340.362 93.1807C341.288 93.4154 341.948 92.5678 342.737 92.2004C343.747 91.7547 344.811 91.4273 345.761 90.8023C346.148 90.5273 346.68 90.3636 346.958 89.8519C347.075 89.5978 347.255 89.5839 347.391 89.5734C348.063 89.4601 348.607 88.8666 349.111 88.3374C349.403 88.0085 349.795 87.7943 350.142 87.5837C350.921 87.0945 351.333 85.9598 352.086 85.7177C352.879 85.4113 353.105 84.2296 353.913 84.1059C354.229 84.0814 354.151 83.6586 354.317 83.4619C355.99 81.6169 357.509 79.5387 358.724 77.0552C359.038 76.4182 359.057 75.4976 359.43 75.0398C360.127 74.0669 359.436 72.7723 359.898 71.695C360.167 71.0615 360.194 69.6502 359.451 68.8498C359.351 68.735 359.327 68.4305 359.309 68.1868C359.264 67.0261 358.612 66.2188 358.311 65.2617C358.005 64.2438 357.286 63.748 356.985 62.7909C356.693 61.9557 355.969 61.399 355.421 60.7674C354.175 59.332 352.965 57.7713 351.607 56.6509C350.539 55.7532 349.745 54.2829 348.439 53.8324C348.114 53.735 347.877 53.0181 347.497 52.8024C346.637 52.2562 345.814 51.5846 345.04 50.9705C344.311 50.3529 343.466 49.9894 342.814 49.1821C342.51 48.7767 341.995 48.5714 341.529 48.4236C341.249 48.3227 341.095 48.0896 340.855 47.9243C340.226 47.4215 339.562 47.0441 338.897 46.6666C338.372 46.3395 337.686 46.2701 337.318 45.6245C336.951 44.979 336.355 44.9026 335.93 44.6903C335.13 44.3233 334.36 43.7701 333.556 43.3422C332.801 42.9717 331.996 42.5438 331.272 41.9871C330.838 41.6531 330.299 41.1433 329.672 41.2531C329.135 41.3558 328.682 40.7782 328.212 40.5695C327.697 40.3642 327.127 40.0407 326.598 39.6527C325.684 38.9882 324.686 39.0041 323.768 38.2786C323.333 37.9446 322.754 37.4992 322.168 37.5446C321.631 37.6474 321.173 37.0088 320.613 36.8071C320.427 36.7601 320.178 36.473 319.953 36.4905C319.33 36.6612 318.827 36.0261 318.312 35.8209C317.517 35.5148 316.752 35.0225 315.931 34.9635C315.475 34.9375 314.946 34.5495 314.791 34.3164C314.193 33.6274 313.459 34.1131 312.866 33.485C312.517 33.0831 311.764 33.3251 311.23 32.8763C310.596 32.3126 309.775 32.2536 309.074 32.0014C308.464 31.7423 307.809 31.4866 307.113 31.2953C306.418 31.1041 305.641 31.0416 304.958 30.4205C304.863 30.3665 304.768 30.3126 304.677 30.3196C303.929 30.6226 303.281 29.8762 302.541 29.6884C301.574 29.5181 300.629 29.0397 299.649 28.6867C298.758 28.3266 297.828 28.031 296.897 27.7354C295.916 27.3823 294.986 27.0867 294.005 26.7336C292.975 26.3232 291.913 26.0989 290.883 25.6885C290.278 25.4902 289.515 25.6105 288.917 24.9215C288.519 24.4621 287.797 24.518 287.341 24.492C286.469 24.3756 285.593 24.1983 284.878 23.7634C284.074 23.3355 283.226 23.5236 282.371 23.0383C281.847 22.7112 281.051 22.4051 280.37 22.3966C279.463 22.4055 278.617 22.042 277.758 21.4957C277.708 21.4383 277.663 21.4418 277.618 21.4453C276.649 21.8266 275.73 21.1011 274.804 20.8664C273.973 20.6856 272.99 20.8842 272.202 20.0874C272.152 20.03 272.107 20.0335 272.062 20.037C271.093 20.4183 270.174 19.6928 269.248 19.4581C268.417 19.2773 267.434 19.4759 266.646 18.679C266.596 18.6216 266.551 18.6251 266.506 18.6286C265.537 19.0099 264.452 18.4812 263.647 18.0532C262.607 17.521 261.491 18.3426 260.544 17.2517C260.544 17.2517 260.499 17.2552 260.454 17.2587C259.389 17.5861 258.381 16.8676 257.369 16.7007C256.498 16.5843 255.464 16.7255 254.631 15.9322C254.582 15.8748 254.536 15.8783 254.491 15.8817C253.503 16.0194 252.537 15.8491 251.597 15.4317C250.467 14.9064 249.187 15.373 248.078 14.5397C248.078 14.5397 248.033 14.5432 247.988 14.5467C247.04 14.62 246.109 14.3244 245.193 14.2115C243.865 14.0691 242.586 13.3715 241.256 13.7808C240.563 13.0379 239.703 13.6558 239.083 13.2749C238.229 12.7895 237.354 13.2248 236.645 12.8508C235.74 12.308 234.83 12.8686 234.071 12.4372C233.081 11.9623 232.071 12.4081 231.176 11.9871C230.281 11.5662 229.362 12.0049 228.607 11.6344C227.572 11.1631 226.562 11.6088 225.667 11.1879C224.912 10.8174 224.24 10.9306 223.509 10.8647C223.255 10.5167 222.944 10.602 222.673 10.6229C222.312 10.6509 221.956 10.7397 221.661 10.4561C220.087 10.6392 218.563 9.71547 216.962 10.1457C215.984 9.24097 214.963 10.1165 214.022 9.69908C212.847 9.17728 211.621 9.76227 210.541 9.29439C209.461 8.82651 208.492 9.20784 207.48 9.041C207.032 8.52426 206.483 9.05689 206.039 8.60105C205.317 8.6569 204.545 8.65533 203.823 8.71118C203.33 8.19792 202.736 8.73405 202.247 8.2817C201.57 8.33406 200.843 8.329 200.167 8.38136C199.868 8.03686 199.561 8.18311 199.241 8.14663C198.925 8.17107 198.614 8.25641 198.274 7.97631C197.642 8.02517 197.006 8.01314 196.329 8.06549C196.03 7.721 195.724 7.86724 195.403 7.83077C194.992 7.80128 194.555 8.0189 194.166 7.68139C193.444 7.73724 192.672 7.73567 191.95 7.79152C191.651 7.44702 191.345 7.59327 191.024 7.5568C190.614 7.5273 190.176 7.74493 189.787 7.40741C188.975 7.47024 188.203 7.46868 187.391 7.53151C187.092 7.18701 186.74 7.33675 186.375 7.30376C185.919 7.27776 185.482 7.49539 185.047 7.16136C184.19 7.22768 183.373 7.22961 182.516 7.29593C182.212 6.89052 181.865 7.10117 181.5 7.06818C180.908 7.05265 180.295 7.34515 179.721 6.96069C178.773 7.03399 177.821 7.04639 176.873 7.11969C176.57 6.71428 176.223 6.92493 175.857 6.89194C175.176 6.8834 174.477 7.24378 173.808 6.80539C172.725 6.88916 171.637 6.91203 170.509 6.9993C170.16 6.59738 169.768 6.81152 169.403 6.77853C168.536 6.72304 167.662 7.15829 166.812 6.73387C165.458 6.83858 164.145 6.8789 162.791 6.98362C162.537 6.63563 162.226 6.72097 161.91 6.74541C160.873 6.82569 159.88 6.90248 158.842 6.98276C158.526 7.0072 158.21 7.03163 157.876 6.81244C155.665 6.98347 153.494 7.09011 151.283 7.26115C150.984 6.91665 150.673 7.00199 150.357 7.02643C147.244 7.26727 144.13 7.50812 141.062 7.74548C140.701 7.7734 140.3 7.86572 139.96 7.58562C136.441 7.85789 132.966 8.12666 129.447 8.39892C129.159 8.7888 128.744 8.6984 128.383 8.72632C125.314 8.96368 122.291 9.19755 119.223 9.4349C118.907 9.45934 118.541 9.42635 118.344 9.80925C116.268 9.96981 114.152 10.1948 112.076 10.3553C111.829 10.6808 111.509 10.6443 111.148 10.6723C110.02 10.7595 108.892 10.8468 107.764 10.9341C107.448 10.9585 107.172 10.9185 106.93 11.3049C105.441 11.4201 103.956 11.5962 102.467 11.7114C102.22 12.0369 101.9 12.0004 101.539 12.0283C100.727 12.0911 99.9594 12.1505 99.1472 12.2133C98.8765 12.2343 98.6058 12.2552 98.4037 12.5772C97.3208 12.661 96.2425 12.8056 95.1145 12.8929C94.4349 13.4969 93.5945 13.1943 92.8772 13.3111C92.5209 13.3999 92.1007 13.2486 91.8178 13.6994C90.78 13.7796 89.7469 13.9208 88.7091 14.0011C88.2053 14.5303 87.5501 14.2746 86.9682 14.3809C86.657 14.4662 86.2368 14.3149 85.999 14.7622C85.0966 14.832 84.1988 14.9627 83.3415 15.0291C82.9684 15.4868 82.4579 15.3425 82.0067 15.3774C81.5602 15.4732 81.0497 15.3289 80.6766 15.7866C79.9546 15.8425 79.1923 15.9627 78.4703 16.0186C78.1376 16.412 77.677 16.325 77.2709 16.3565C76.955 16.3809 76.5893 16.3479 76.392 16.7308C75.67 16.7867 74.9076 16.9069 74.1857 16.9627C73.8078 17.3596 73.3472 17.2727 72.896 17.3076C72.5848 17.3929 72.1646 17.2416 71.9268 17.6889C71.3403 17.7343 70.7584 17.8406 70.1718 17.886C69.8391 18.2793 69.3784 18.1924 68.9723 18.2238C68.6565 18.2483 68.2908 18.2153 68.0934 18.5982C67.4617 18.6471 66.8347 18.7568 66.1579 18.8092C65.8656 19.1382 65.4999 19.1052 65.184 19.1296C64.9133 19.1505 64.5927 19.1141 64.3503 19.5005C63.7637 19.5458 63.1818 19.6521 62.5952 19.6975C62.3029 20.0265 61.9372 19.9935 61.6214 20.0179C61.3506 20.0389 61.0301 20.0024 60.8327 20.3853C59.275 20.1994 57.9206 21.4683 56.3272 21.4078C55.0543 21.3837 53.8831 22.087 52.6837 22.4249C51.8405 22.6739 50.9926 22.8621 50.1898 23.0467C49.8975 23.3757 49.5318 23.3427 49.216 23.3671C48.9452 23.3881 48.6247 23.3516 48.4273 23.7345C46.8433 23.7958 45.4795 24.9429 43.8767 24.7605C43.1803 25.7335 42.0859 25.0829 41.3565 25.6295C40.582 26.1795 39.8102 26.178 39.0075 26.3626C38.7603 26.6881 38.4397 26.6516 38.0787 26.6795C37.808 26.7005 37.5373 26.7214 37.3352 27.0434C35.8772 26.9724 34.6581 28.2308 33.1907 28.038C32.3636 29.0823 31.2194 28.3743 30.3547 28.9314C29.4044 29.5563 28.2884 29.2138 27.4284 29.8317C26.6088 30.3853 25.7232 30.0862 24.9891 30.5719C24.0388 31.1968 22.9276 30.9152 22.0628 31.4722C21.2883 32.0223 20.4027 31.7232 19.7137 32.2054C18.723 32.8947 17.5573 32.4947 16.7424 33.1092C15.9227 33.6628 15.1368 33.4785 14.3886 33.7815C13.2888 34.2342 12.1203 34.3858 11.0158 34.7776C10.3531 35.0127 9.6453 35.2513 8.93277 35.429C8.56436 35.9476 7.94479 35.5666 7.57638 36.0853C6.78302 36.3918 6.19643 36.4372 5.60984 36.4825C5.36266 36.808 4.94714 36.7176 4.70467 37.104C4.07296 37.1529 3.44125 37.2017 2.85937 37.308C1.96163 37.4387 1.16628 37.1326 0.423486 36.3323C0.368941 36.214 0.238286 36.2853 0.148041 36.2923C0.100925 35.6833 0.0538089 35.0742 0.00669303 34.4651C0.624996 33.0693 1.52545 32.387 2.72491 32.0491C3.52297 31.8035 4.25236 31.2569 5.16423 31.3089C5.57505 31.3384 5.9266 31.1887 6.16435 30.7414C7.37795 30.5863 8.55385 29.9438 9.7533 29.606C10.777 29.343 11.905 29.2557 12.8412 28.448C12.9267 28.3801 13.0574 28.3088 13.1928 28.2983C13.9147 28.2424 14.568 27.8856 15.2758 27.647C16.2449 27.2657 17.2329 27.128 18.2021 26.7466C19.5227 26.2156 20.9074 25.9246 22.214 25.2109C22.4753 25.0681 22.7911 25.0437 23.107 25.0192C23.6936 24.9739 24.2802 24.9285 24.8338 24.4568C25.2567 24.0564 25.8575 24.1938 26.3538 24.1554C26.7646 24.1849 27.166 24.0925 27.399 23.5843C27.7459 23.3737 28.1116 23.4067 28.5177 23.3753C28.8787 23.3473 29.1898 23.262 29.4868 22.9939C29.5723 22.926 29.6532 22.7972 29.7434 22.7903C30.926 22.8213 31.9336 21.763 33.1162 21.7941C33.6172 21.8166 34.0637 21.7208 34.4369 21.263C34.5224 21.1951 34.6079 21.1273 34.6982 21.1203C36.0209 21.2018 37.1281 20.2583 38.3915 20.1606C38.4817 20.1536 38.6218 20.204 38.7026 20.0752C39.589 19.2102 40.8093 19.7285 41.674 19.1714C42.8405 18.4072 44.1914 18.8541 45.2987 17.9107C45.6812 17.5747 46.2819 17.7121 46.7783 17.6737C47.4006 17.503 48.1602 17.9344 48.6404 17.1007C48.9422 16.8936 49.258 16.8691 49.5739 16.8447C50.0251 16.8098 50.4763 16.7749 50.8494 16.3171C50.935 16.2492 51.0205 16.1814 51.1108 16.1744C52.5688 16.2454 53.8377 15.0444 55.3455 15.1728C55.8015 15.1988 56.1935 14.9847 56.6258 14.7061C57.4003 14.156 58.3263 14.3908 59.2241 14.2601C59.8464 14.0894 60.606 14.5208 61.0862 13.6871C61.6042 13.3407 62.2049 13.478 62.7867 13.3717C63.409 13.2011 64.1687 13.6325 64.6489 12.7988C65.1668 12.4524 65.7675 12.5897 66.3494 12.4834C66.9717 12.3127 67.7314 12.7442 68.2069 11.8496C68.9053 11.4892 69.6414 11.6161 70.3182 11.5637C70.7243 11.5323 71.0806 11.4435 71.4914 11.4729C71.8571 11.5059 72.1588 11.2988 72.3561 10.9159C73.1448 10.5485 73.9711 10.6684 74.7833 10.6056C75.2797 10.5672 75.7713 10.4679 76.2724 10.4904C76.6333 10.4625 76.8946 10.3197 77.092 9.93681C77.9258 9.56596 78.7972 9.68236 79.6949 9.55164C80.1913 9.51325 80.6829 9.41394 81.184 9.43645C81.545 9.40853 81.8063 9.26577 82.0036 8.88288C82.8374 8.51203 83.754 8.62494 84.6066 8.49771C85.3285 8.44186 86.0956 8.38252 86.8176 8.32667C87.1786 8.29875 87.4399 8.15599 87.6419 7.834C88.5161 7.39875 89.4825 7.56908 90.4254 7.43487C91.1925 7.37553 91.9144 7.31968 92.6815 7.26034C93.0425 7.23242 93.3038 7.08966 93.5011 6.70677C94.6009 6.25406 95.7478 6.41043 96.8712 6.26226C97.8187 6.18895 98.7663 6.11565 99.7139 6.04235C100.075 6.01443 100.336 5.87167 100.538 5.54968C101.773 5.08651 103.101 5.22891 104.359 5.07027C105.623 4.97253 106.886 4.8748 108.15 4.77706C108.511 4.74914 108.822 4.6638 109.064 4.27741C109.321 4.07375 109.592 4.0528 109.862 4.03186C111.848 3.87828 113.788 3.72818 115.773 3.5746C118.255 3.38262 120.692 3.19413 123.174 3.00215C123.489 2.97772 123.86 3.07161 124.052 2.62781C130.731 2.1112 137.409 1.5946 144.042 1.08149C144.3 1.49039 144.652 1.34065 144.968 1.31622C147.088 1.15216 149.209 0.988104 151.33 0.82405C151.691 0.796125 152.047 0.707294 152.346 1.05179C154.301 1.08442 156.286 0.930835 158.226 0.780741C158.475 1.06782 158.746 1.04688 159.017 1.02594C159.964 0.952634 160.912 0.879334 161.859 0.806032C162.175 0.781598 162.491 0.757164 162.826 0.976357C164.225 0.868151 165.628 0.820851 167.027 0.712643C167.376 1.11456 167.768 0.900421 168.134 0.933403C168.91 0.995878 169.649 0.571099 170.408 1.0025C171.537 0.91524 172.714 0.885393 173.842 0.798129C174.146 1.20353 174.493 0.992889 174.859 1.02587C175.495 1.03791 176.148 0.681018 176.773 1.1229C177.765 1.0461 178.763 1.03022 179.756 0.953426C180.104 1.35534 180.496 1.1412 180.862 1.17419C181.498 1.18623 182.111 0.893732 182.686 1.27819C183.408 1.22234 184.179 1.22391 184.901 1.16806C185.205 1.57347 185.552 1.36282 185.918 1.3958C186.464 1.41482 186.986 1.12931 187.561 1.51377C188.373 1.45094 189.145 1.45251 189.957 1.38968C190.256 1.73418 190.608 1.58444 190.973 1.61742C191.429 1.64342 191.866 1.4258 192.301 1.75982C192.887 1.71445 193.474 1.66907 194.065 1.6846C194.369 2.09 194.716 1.87936 195.082 1.91234C195.537 1.93834 195.975 1.72071 196.409 2.05474C197.131 1.99889 197.903 2.00046 198.625 1.94461C198.924 2.28911 199.23 2.14286 199.551 2.17934C199.866 2.1549 200.178 2.06956 200.517 2.34966C200.968 2.31475 201.419 2.27985 201.875 2.30585C203.239 2.32295 204.604 2.9526 205.938 2.60426C206.237 2.94876 206.544 2.80251 206.864 2.83898C207.18 2.81455 207.496 2.79011 207.831 3.00931C208.282 2.9744 208.738 3.00041 209.189 2.9655C210.408 2.87125 211.611 3.7585 212.801 3.29882C213.1 3.64331 213.406 3.49706 213.727 3.53354C214.043 3.5091 214.354 3.42376 214.693 3.70386C215.145 3.66896 215.596 3.63405 216.007 3.66354C216.261 4.01153 216.612 3.8618 216.933 3.89827C217.249 3.87383 217.56 3.78849 217.899 4.06859C218.531 4.01973 219.324 3.71327 219.849 4.04031C220.613 4.53263 221.276 4.29755 222.007 4.36351C222.261 4.7115 222.572 4.62616 222.843 4.60522C223.204 4.57729 223.56 4.48846 223.855 4.77205C225.284 4.47763 226.682 5.53364 228.103 5.1174C228.941 5.97167 229.922 5.1605 230.727 5.58842C231.717 6.06328 232.681 5.62105 233.526 5.98456C234.371 6.34808 235.205 5.97723 235.874 6.41561C236.779 6.95836 237.617 6.64841 238.489 6.76481C238.788 7.10931 239.185 6.95608 239.479 7.23967C240.769 6.89482 242.008 7.65676 243.285 7.74175C244.017 7.80771 244.874 7.74139 245.539 8.11887C246.343 8.54679 247.132 8.17942 247.842 8.55341C248.647 8.98133 249.526 8.60698 250.19 8.98446C250.95 9.41587 251.864 8.91622 252.358 9.42947C253.191 10.2228 254.158 9.22894 254.83 10.2799C254.88 10.3373 254.925 10.3338 254.97 10.3303C256.074 9.93853 257.245 10.3994 258.19 10.8778C259.225 11.3491 260.351 10.6493 261.293 11.6793C261.293 11.6793 261.338 11.6758 261.383 11.6723C262.352 11.291 263.352 11.8877 264.152 12.2547C265.232 12.7226 266.358 12.0228 267.3 13.0528C267.3 13.0528 267.345 13.0493 267.39 13.0458C268.36 12.6644 269.278 13.3899 270.204 13.6246C271.035 13.8054 272.018 13.6068 272.806 14.4037C272.856 14.4611 272.901 14.4576 272.946 14.4541C273.83 14.1407 274.685 14.626 275.44 14.9965C276.289 15.4209 277.249 14.9178 278.001 15.8399C278.051 15.8974 278.096 15.8939 278.141 15.8904C279.115 15.57 280.034 16.2954 281 16.4658C281.596 16.5422 282.454 16.4759 283.011 17.2293C283.061 17.2867 283.156 17.3406 283.201 17.3371C284.085 17.0237 284.984 17.5055 285.654 17.9439C286.513 18.4901 287.378 17.9331 288.166 18.7299C288.56 19.1283 289.287 19.1334 289.742 19.1594C290.569 19.2793 291.49 19.4531 292.205 19.888C293.014 20.3768 293.857 20.1278 294.712 20.6131C295.236 20.9402 296.022 21.1244 296.718 21.3157C297.414 21.507 298.186 21.5086 298.779 22.1366C298.829 22.1941 298.924 22.248 298.969 22.2445C299.762 21.938 300.491 22.5557 301.151 22.8722C301.766 23.1923 302.492 23.1974 303.112 23.5783C303.682 23.9019 304.422 24.0897 305.118 24.2809C305.814 24.4722 306.586 24.4738 307.179 25.1018C307.229 25.1593 307.324 25.2132 307.369 25.2097C308.117 24.9067 308.729 25.7785 309.506 25.8409C309.916 25.8704 310.522 26.0687 310.925 26.5889C310.98 26.7072 311.12 26.7577 311.165 26.7542C311.913 26.4512 312.602 27.1332 313.257 27.3889C314.192 27.7454 315.285 27.7835 316.082 28.7021C316.182 28.817 316.317 28.8065 316.452 28.796C317.179 28.8011 317.803 29.2429 318.432 29.7457C318.527 29.7997 318.622 29.8536 318.712 29.8466C319.484 29.8482 320.123 30.4728 320.828 30.7858C321.388 30.9876 321.891 31.6227 322.559 31.4485C323 31.2918 323.404 31.812 323.738 32.0312C324.838 32.7427 326.03 32.8956 327.038 33.6141C328.092 34.3291 329.222 34.8544 330.321 35.5659C331.081 35.9973 331.886 36.4252 332.691 36.8531C333.45 37.2845 334.291 37.5871 334.979 38.2691C335.278 38.6136 335.734 38.6396 336.069 38.8588C337.168 39.5703 338.267 40.2818 339.361 40.9324C340.315 41.5326 341.243 42.3799 342.278 42.8512C342.843 43.1139 343.413 43.4374 343.907 43.9507C344.355 44.4674 344.92 44.7301 345.481 44.9318C345.761 45.0327 345.83 45.3337 346.019 45.4416C346.919 45.9234 347.748 46.6559 348.566 47.2665C349.29 47.8232 350.064 48.4374 350.833 48.9906C351.507 49.4899 352.074 50.3651 352.856 50.4885C353.176 50.5249 353.159 50.8939 353.354 51.0626C355.308 52.2595 356.876 54.3439 358.349 56.3744C359.011 57.3035 359.894 58.1543 360.314 59.4698C360.546 60.1258 361.09 60.6965 361.462 61.403C361.775 61.9302 362.048 62.5218 362.271 63.056C362.821 64.3001 363.29 65.6731 363.669 67.053C364.103 68.5512 364.126 70.02 364.334 71.5356C364.537 72.9904 364.235 74.3618 363.837 75.6792C363.659 76.3058 363.86 77.148 363.501 77.7885C363.385 78.0426 363.232 78.422 363.121 78.737C362.209 81.6259 360.406 83.5423 359.051 85.9755C358.032 86.2994 357.689 87.7351 356.829 88.3531C356.14 88.8353 355.569 89.676 354.894 90.3409C354.26 90.9414 353.68 91.6602 353.046 92.2608C352.366 92.8648 351.577 93.2321 351.002 94.0119C350.755 94.3374 350.323 94.6159 350.016 94.7621C349.142 95.1974 348.51 96.4105 347.462 96.3689C347.298 97.1782 346.598 96.926 346.229 97.4447C345.901 97.899 345.165 97.7721 344.711 98.3586C344.172 99.0131 343.3 98.8967 342.766 99.612C342.433 100.005 341.806 100.115 341.409 100.268C340.656 100.51 340.017 101.05 339.269 101.353C338.385 101.666 337.393 101.743 336.687 102.594C336.646 102.659 336.601 102.662 336.556 102.666C335.54 102.438 334.639 103.12 333.91 103.667C332.919 104.356 331.694 103.777 330.922 104.94C330.881 105.004 330.836 105.008 330.791 105.011C329.333 104.94 328.114 106.199 326.647 106.006C326.219 106.345 325.758 106.258 325.561 106.641Z" fill="url(#paint0_linear_8_436)"/>
<defs>
<linearGradient id="paint0_linear_8_436" x1="4.36015" y1="137.024" x2="61.6818" y2="-90.1217" gradientUnits="userSpaceOnUse">
<stop stop-color="#06D4EF"/>
<stop offset="1" stop-color="#0060B7"/>
</linearGradient>
</defs>
</svg>
