<svg width="44" height="58" viewBox="0 0 44 58" fill="none" xmlns="http://www.w3.org/2000/svg">
<g clip-path="url(#clip0_339_425)">
<path d="M42.7602 57.8779C28.9953 57.8779 15.2322 57.8599 1.46733 57.9102C0.2992 57.9138 0.0859994 57.6049 0.0895826 56.4951C0.125222 39.0162 0.117456 21.5373 0.116538 4.05688C0.116438 2.14998 0.784098 0.0933579 2.69099 0.0933579V0.0933579C11.7386 0.0861746 20.788 0.0915621 29.8356 0.0987454C30.8926 0.0987454 31.8386 0.332204 32.6412 1.14931C36.0077 4.58114 39.4063 7.98245 42.8122 11.3748C43.5485 12.1093 43.9086 12.9425 43.9086 13.9805C43.9015 27.7653 43.9015 41.5484 43.9086 55.3332C43.9086 56.3724 43.6366 57.2537 42.7599 57.8768C42.7594 57.8771 42.7597 57.8779 42.7602 57.8779V57.8779ZM2.80207 28.9703C2.80207 36.8954 2.83611 44.8186 2.7752 52.7436C2.76266 54.4137 3.35747 55.0081 5.00037 55.0009C16.3502 54.9614 27.7 54.965 39.048 54.9955C40.5924 54.9991 41.1961 54.4424 41.1908 52.8459C41.1478 40.7151 41.146 28.5842 41.1926 16.4552C41.1997 14.821 40.5619 14.3074 39.0301 14.3612C36.8479 14.4367 34.6604 14.399 32.4764 14.3666C30.1563 14.3325 29.7442 13.9231 29.6905 11.5508C29.6457 9.53944 29.6851 7.5281 29.6672 5.51677C29.6439 3.19835 29.4253 2.94694 27.1912 2.94155C19.8474 2.92539 12.5036 2.92539 5.15982 2.94155C2.97765 2.94514 2.80565 3.13909 2.80386 5.38029C2.7967 13.2442 2.80207 21.1064 2.80207 28.9703ZM35.7452 8.52398C34.5884 7.34371 32.5464 8.13664 32.5597 9.78919C32.561 9.94258 32.5624 10.0957 32.5642 10.2488C32.5696 10.7534 32.7165 11.3227 33.245 11.4287C33.6389 11.5079 34.0326 11.5613 34.4261 11.596C36.044 11.7389 36.8821 9.68401 35.7452 8.52398V8.52398Z" fill="url(#paint0_linear_339_425)"/>
<path d="M16.3063 48.6212C16.3057 48.6207 16.3049 48.6203 16.3041 48.6203C14.5523 48.6204 12.7988 48.6527 11.0488 48.6078C10.2229 48.5862 9.42202 48.3186 9.39336 47.2986C9.36469 46.275 10.1333 45.9338 10.9736 45.9266C14.4779 45.8943 17.9823 45.8961 21.4867 45.932C22.2965 45.941 23.1278 46.1726 23.1439 47.2232C23.16 48.3887 22.2481 48.5772 21.3828 48.6042C19.6937 48.658 17.9993 48.6204 16.3084 48.6221C16.3076 48.6221 16.3068 48.6218 16.3063 48.6212V48.6212Z" fill="url(#paint1_linear_339_425)"/>
<path d="M16.1361 25.7549C16.1364 25.7552 16.1362 25.7558 16.1357 25.7558C14.4986 25.7558 12.8597 25.7701 11.2226 25.7504C10.3143 25.7396 9.42026 25.5133 9.39518 24.4125C9.3701 23.3045 10.2408 23.0243 11.1599 23.0189C14.5568 22.9992 17.9537 22.9992 21.3506 23.0135C22.2517 23.0171 23.1583 23.2272 23.1655 24.3496C23.1726 25.5906 22.1872 25.7432 21.2305 25.7558C19.5328 25.7773 17.835 25.7612 16.1373 25.7612C16.1361 25.7612 16.1352 25.7602 16.1352 25.7591C16.1352 25.7578 16.1352 25.7564 16.1352 25.7552C16.1352 25.7548 16.1358 25.7545 16.1361 25.7549V25.7549Z" fill="url(#paint2_linear_339_425)"/>
<path d="M16.3717 11.6343C16.3717 11.6338 16.3721 11.6334 16.3726 11.6334C18.0653 11.6334 19.7563 11.6226 21.4491 11.6388C22.2929 11.646 23.0777 11.8543 23.1368 12.8797C23.1959 13.9051 22.4273 14.2894 21.6014 14.3002C18.0379 14.3469 14.4726 14.3487 10.9073 14.302C10.0706 14.2912 9.31814 13.8728 9.39876 12.86C9.47938 11.8543 10.2641 11.6406 11.1133 11.637C12.8652 11.628 14.6189 11.6334 16.3708 11.6352C16.3713 11.6352 16.3717 11.6348 16.3717 11.6343V11.6343Z" fill="url(#paint3_linear_339_425)"/>
<path d="M16.3018 37.1333C16.3018 37.1328 16.3014 37.1324 16.3009 37.1324C14.549 37.1324 12.7953 37.1414 11.0434 37.127C10.1799 37.1198 9.42204 36.8379 9.39338 35.8358C9.3665 34.8283 10.1423 34.462 10.9772 34.453C14.4815 34.4135 17.9877 34.4153 21.4921 34.4512C22.3162 34.4602 23.1296 34.7691 23.1404 35.7747C23.1529 36.9079 22.2929 37.1234 21.3792 37.1324C19.6864 37.1468 17.9955 37.136 16.3027 37.1342C16.3022 37.1342 16.3018 37.1338 16.3018 37.1333V37.1333Z" fill="url(#paint4_linear_339_425)"/>
<path d="M36.9005 31.5252C36.9001 31.5256 36.8998 31.526 36.8996 31.5265C36.794 31.7546 36.6793 32.1062 36.4843 32.4058C35.1871 34.3866 33.8846 36.3638 32.5606 38.3248C31.7329 39.5514 30.7637 39.6555 29.7102 38.587C29.1154 37.9818 28.4919 37.4 27.9437 36.7535C27.4617 36.186 27.3811 35.5233 27.9401 34.9451C28.431 34.4368 29.1118 34.3758 29.5812 34.8409C30.8067 36.0549 31.3979 35.2773 32.0518 34.2303C32.824 32.9966 33.6571 31.8006 34.5099 30.6189C34.8879 30.0945 35.4451 29.8216 36.1044 30.1035C36.6576 30.3404 36.9281 30.787 36.9018 31.5222C36.9017 31.5234 36.9013 31.5244 36.9005 31.5252V31.5252Z" fill="url(#paint5_linear_339_425)"/>
<path d="M31.1668 27.909C30.2118 27.9682 27.5424 25.3409 27.5692 24.3712C27.5997 23.3117 28.7768 22.6975 29.6833 23.4679C30.9285 24.5256 31.4158 23.836 32.0232 22.8519C32.7255 21.7134 33.4976 20.6161 34.2447 19.5063C34.7769 18.7161 35.4774 18.2115 36.3785 18.8275C37.2116 19.3985 36.9841 20.2067 36.5093 20.9286C35.171 22.9615 33.8219 24.9872 32.4675 27.0093C32.1575 27.4726 31.7705 27.8569 31.1686 27.909H31.1668Z" fill="url(#paint6_linear_339_425)"/>
</g>
<defs>
<linearGradient id="paint0_linear_339_425" x1="-0.344474" y1="57.3592" x2="54.8027" y2="13.9204" gradientUnits="userSpaceOnUse">
<stop stop-color="#06D4EF"/>
<stop offset="1" stop-color="#0060B7"/>
</linearGradient>
<linearGradient id="paint1_linear_339_425" x1="9.25637" y1="48.6073" x2="10.2433" y2="43.4398" gradientUnits="userSpaceOnUse">
<stop stop-color="#06D4EF"/>
<stop offset="1" stop-color="#0060B7"/>
</linearGradient>
<linearGradient id="paint2_linear_339_425" x1="9.25826" y1="25.7406" x2="10.2676" y2="20.513" gradientUnits="userSpaceOnUse">
<stop stop-color="#06D4EF"/>
<stop offset="1" stop-color="#0060B7"/>
</linearGradient>
<linearGradient id="paint3_linear_339_425" x1="9.25666" y1="14.3104" x2="10.2276" y2="9.18424" gradientUnits="userSpaceOnUse">
<stop stop-color="#06D4EF"/>
<stop offset="1" stop-color="#0060B7"/>
</linearGradient>
<linearGradient id="paint4_linear_339_425" x1="9.25653" y1="37.1139" x2="10.2341" y2="31.9707" gradientUnits="userSpaceOnUse">
<stop stop-color="#06D4EF"/>
<stop offset="1" stop-color="#0060B7"/>
</linearGradient>
<linearGradient id="paint5_linear_339_425" x1="27.4583" y1="39.2331" x2="36.6054" y2="29.7043" gradientUnits="userSpaceOnUse">
<stop stop-color="#06D4EF"/>
<stop offset="1" stop-color="#0060B7"/>
</linearGradient>
<linearGradient id="paint6_linear_339_425" x1="27.4763" y1="27.8208" x2="36.649" y2="18.2779" gradientUnits="userSpaceOnUse">
<stop stop-color="#06D4EF"/>
<stop offset="1" stop-color="#0060B7"/>
</linearGradient>
<clipPath id="clip0_339_425">
<rect width="44" height="58" fill="white"/>
</clipPath>
</defs>
</svg>
